<svg xmlns="http://www.w3.org/2000/svg" xmlns:xlink="http://www.w3.org/1999/xlink" width="596.82" height="103.982" viewBox="0 0 596.82 103.982">
  <defs>
    <clipPath id="clip-path">
      <path id="Caminho_4541" data-name="Caminho 4541" d="M3507.606,3407.3l20.7,11.927a2.568,2.568,0,0,0,1.231.308,2.4,2.4,0,0,0,1.192-.308l20.617-11.893-21.816-11.865-21.91,11.831m-.183-26.587a2.625,2.625,0,0,0-1.324,2.061v22.356a1.212,1.212,0,0,0,0,.238l22.14-12.031V3368.71Zm23.233,12.616,22.126,11.97v-22.513a2.464,2.464,0,0,0-1.216-2.061l-20.812-12.012h-.108Z" fill="#d7d7d7"/>
    </clipPath>
  </defs>
  <g id="Grupo_12099" data-name="Grupo 12099" transform="translate(-3479.928 -3341.953)">
    <g id="Grupo_12097" data-name="Grupo 12097">
      <g id="Grupo_568" data-name="Grupo 568">
        <path id="Caminho_299" data-name="Caminho 299" d="M3655.406,3379.759a13.23,13.23,0,0,1-10.5,13.357,14.57,14.57,0,0,1,12.847,15.171c0,10.279-8.308,16.459-21.847,16.459h-26.678v-60.02h26.048c12.416,0,20.125,5.663,20.125,15m-10.355,1.8c0-4.969-3.862-7.8-10.292-7.693h-15.386V3389.6h15.386c6.44,0,10.292-2.907,10.292-8.048m2.309,25.433c0-5.308-4.708-8.554-12.6-8.478h-15.386v17.141h15.386c7.893,0,12.6-3.077,12.6-8.663" fill="#fff"/>
        <path id="Caminho_300" data-name="Caminho 300" d="M3700.9,3424.732l-10.973-18.155h-16.955v18.155h-10.107v-60.006H3687.2c15.385,0,24.156,7.462,24.156,20.478,0,9.6-4.446,16.371-12.416,19.448l13.449,20Zm-13.709-27.157c9.231,0,14.57-3.939,14.57-12.077,0-7.872-5.308-11.648-14.57-11.648h-14.217v23.725Z" fill="#fff"/>
        <rect id="Ret창ngulo_2512" data-name="Ret창ngulo 2512" width="10.109" height="59.975" transform="translate(3719.674 3364.755)" fill="#fff"/>
        <path id="Caminho_301" data-name="Caminho 301" d="M3783.055,3364.755v9.093h-19.018v50.881h-10.109v-50.881h-18.914v-9.093Z" fill="#fff"/>
        <path id="Caminho_302" data-name="Caminho 302" d="M3823.515,3405.716H3789.08A13.847,13.847,0,0,0,3803.2,3417.1a17.694,17.694,0,0,0,12.847-5.307l5.231,5.569a24.753,24.753,0,0,1-18.844,7.693c-14.047,0-23.295-9.338-23.295-23.078s9.508-23.078,23.078-23.2c16.018,0,22.542,10.448,21.342,26.9m-8.573-7.195c-.339-7.37-5.231-11.817-12.678-11.817a12.992,12.992,0,0,0-13.37,11.817Z" fill="#fff"/>
        <path id="Caminho_303" data-name="Caminho 303" d="M3851.2,3387.478c-7.893,0-13.54,5.908-13.54,14.55s5.647,14.57,13.54,14.57a17.056,17.056,0,0,0,13.448-5.487l5.486,5.487c-4.107,5.4-10.769,8.477-19.357,8.477-13.539,0-22.956-9.338-22.956-23.078s9.432-23.171,22.956-23.171c8.216,0,14.649,2.645,18.845,7.447l-5.4,6.34a17.156,17.156,0,0,0-13.017-5.138" fill="#fff"/>
        <path id="Caminho_304" data-name="Caminho 304" d="M3917.681,3396.4v28.326h-9.863v-25.618a10.151,10.151,0,0,0-10.956-11.047c-8.139,0-13.031,6.155-13.031,14.217v22.448h-9.849V3361.17h9.846v26.894c3.261-6.44,9.079-9.231,16.936-9.231,10.617,0,16.936,6.679,16.936,17.556" fill="#fff"/>
      </g>
      <g id="Grupo_12096" data-name="Grupo 12096">
        <path id="Caminho_4540" data-name="Caminho 4540" d="M3507.606,3407.3l20.7,11.927a2.568,2.568,0,0,0,1.231.308,2.4,2.4,0,0,0,1.192-.308l20.617-11.893-21.816-11.865-21.91,11.831m-.183-26.587a2.625,2.625,0,0,0-1.324,2.061v22.356a1.212,1.212,0,0,0,0,.238l22.14-12.031V3368.71Zm23.233,12.616,22.126,11.97v-22.513a2.464,2.464,0,0,0-1.216-2.061l-20.812-12.012h-.108Z" fill="#d7d7d7"/>
        <g id="Grupo_12095" data-name="Grupo 12095" clip-path="url(#clip-path)">
          <g id="Grupo_569" data-name="Grupo 569">
            <rect id="Ret창ngulo_2514" data-name="Ret창ngulo 2514" width="46.698" height="50.898" transform="translate(3506.096 3368.633)" fill="#d7d7d7"/>
          </g>
        </g>
      </g>
      <g id="Grupo_571" data-name="Grupo 571">
        <path id="Caminho_309" data-name="Caminho 309" d="M3497.959,3405.3v-22.422a2.321,2.321,0,0,0-1.137-2.077l-13.986-7.586a1.939,1.939,0,0,0-2.907,1.739v38.285a1.969,1.969,0,0,0,1.956,1.984h.014a2.274,2.274,0,0,0,.985-.238l13.94-7.6a2.323,2.323,0,0,0,1.138-2.077" fill="#fff"/>
        <path id="Caminho_310" data-name="Caminho 310" d="M3534.87,3361.587l20.91,12.068a2.317,2.317,0,0,0,1.193.322,2.425,2.425,0,0,0,1.138-.294l13.954-7.542a1.939,1.939,0,0,0,0-3.43l-35.442-20.481a1.975,1.975,0,0,0-1-.277,1.94,1.94,0,0,0-1.94,1.939v15.586a2.477,2.477,0,0,0,1.192,2.061" fill="#fff"/>
        <path id="Caminho_311" data-name="Caminho 311" d="M3487.066,3366.141l13.954,7.54a2.369,2.369,0,0,0,1.138.293,2.315,2.315,0,0,0,1.2-.319l20.786-12.077a2.31,2.31,0,0,0,1.061-2.092v-15.548a1.846,1.846,0,0,0-1.7-1.979c-.047,0-.095-.006-.143-.006a1.781,1.781,0,0,0-.954.277l-35.38,20.478a1.91,1.91,0,0,0-.985,1.722,1.951,1.951,0,0,0,1.062,1.708" fill="#fff"/>
        <path id="Caminho_312" data-name="Caminho 312" d="M3577.115,3372.956a1.784,1.784,0,0,0-.924.262l-14.033,7.585a2.432,2.432,0,0,0-1.245,2.078V3405.3a2.45,2.45,0,0,0,1.262,2.078l14.047,7.571a2.07,2.07,0,0,0,1,.238h0a1.72,1.72,0,0,0,1.4-.677,1.879,1.879,0,0,0,.353-1.262v-38.292a1.877,1.877,0,0,0-1.749-2c-.032,0-.065,0-.1,0" fill="#fff"/>
        <path id="Caminho_313" data-name="Caminho 313" d="M3524.146,3426.33l-20.6-11.939a2.491,2.491,0,0,0-2.309,0l-13.94,7.54a1.953,1.953,0,0,0,0,3.447l35.2,20.276a1.978,1.978,0,0,0,1.017.276,1.719,1.719,0,0,0,1.385-.715,2,2,0,0,0,.308-1.277v-15.547a2.324,2.324,0,0,0-1.061-2.061" fill="#fff"/>
        <path id="Caminho_314" data-name="Caminho 314" d="M3571.812,3421.9l-13.957-7.55a2.556,2.556,0,0,0-2.337,0l-20.648,11.97a2.428,2.428,0,0,0-1.192,2.061v15.571a1.923,1.923,0,0,0,1.858,1.985h.126a2.074,2.074,0,0,0,1.031-.277l35.164-20.313a1.97,1.97,0,0,0,0-3.447" fill="#fff"/>
      </g>
    </g>
    <g id="Grupo_12098" data-name="Grupo 12098">
      <path id="Caminho_4542" data-name="Caminho 4542" d="M3953.991,3384.2l-6.139-13.237a12.363,12.363,0,0,1,6.115-3.3c3.21-.849,6.407-2.05,9.674-2.315,8.131-.661,16.473-1.9,24.063,2.367,4.725,2.655,8.556,6.414,9.492,12.093a71.332,71.332,0,0,1,.941,10.823c.116,11.263.043,22.528.043,33.86-2.416,1.3-4.9.377-7.228.757-5.355.876-9.165-.674-10.639-6.295-.063-.239-.437-.4-.909-.8a24.119,24.119,0,0,0-1.877,1.652,18,18,0,0,1-10.925,6.01c-7.18.911-14.372,1.211-19.821-4.873-2.673-2.986-4.52-6.449-4.468-10.65.02-1.675-.013-3.351-.042-5.026-.112-6.663,3.287-11.194,8.954-14.076a31.209,31.209,0,0,1,14.409-3.5c2.893.013,5.791.036,8.679-.1,2.63-.121,3.681-2.2,2.2-4.417a5.6,5.6,0,0,0-4.839-2.889c-5.078-.077-9.982.387-14.567,2.792A24.205,24.205,0,0,1,3953.991,3384.2Zm23.074,14.7a63.169,63.169,0,0,0-7.485.869,9.682,9.682,0,0,0-4.348,2.212,5.558,5.558,0,0,0,1.289,9.173c3.7,1.655,10.084-2.006,10.51-6.138C3977.23,3403.095,3977.065,3401.138,3977.065,3398.9Z" fill="#fff"/>
      <path id="Caminho_4543" data-name="Caminho 4543" d="M4053.686,3374.76c4.08-4.32,7.72-8.446,13.062-9.6,3.021-.656,6.3-.119,9.953-.119,0,2.955.125,5.647-.033,8.323-.186,3.162-.6,6.312-.948,9.464a2.191,2.191,0,0,1-2.4,2.2c-2.434-.009-4.871-.09-7.3-.025-6.294.167-10.1,3.909-10.235,10.314-.141,6.693-.042,13.392-.047,20.088,0,3.034,0,6.068,0,9.369a25.367,25.367,0,0,1-3.179.437c-4.87.043-9.74.07-14.609,0-2.709-.04-3.163-.494-3.209-3.227-.077-4.564-.022-9.131-.023-13.7,0-12.784-.018-25.567.012-38.351.009-3.832.3-4.082,4.193-4.128,2.891-.035,5.79.11,8.673-.045,2.241-.119,3.391.929,4.031,2.886C4052.189,3370.359,4052.778,3372.065,4053.686,3374.76Z" fill="#fff"/>
      <path id="Caminho_4544" data-name="Caminho 4544" d="M4006.546,3366.018h19.391c.739,3.653,1,50.934.345,58.716-3.181,1.06-6.528.327-9.8.464-3.176.132-6.36.028-9.226.028a8.357,8.357,0,0,1-.648-.579c-.092-.11-.216-.248-.216-.374q-.1-28.084-.164-56.171A15.373,15.373,0,0,1,4006.546,3366.018Z" fill="#fff"/>
      <path id="Caminho_4545" data-name="Caminho 4545" d="M4005.386,3351.737c-.06-5.69,2.689-8.777,8.709-9.567,3.05-.4,5.962.386,8.872,1.305,3.82,1.206,5.2,7.081,4.209,10.882a7.553,7.553,0,0,1-6.97,5.981c-2.492.254-4.893.671-7.525.143C4007.29,3359.4,4005.449,3356.1,4005.386,3351.737Z" fill="#fff"/>
    </g>
  </g>
</svg>
