<svg xmlns="http://www.w3.org/2000/svg" xmlns:xlink="http://www.w3.org/1999/xlink" width="324.542" height="56.544" viewBox="0 0 324.542 56.544">
  <defs>
    <clipPath id="clip-path">
      <path id="Caminho_4500" data-name="Caminho 4500" d="M3494.979,3523.7l11.253,6.486a1.412,1.412,0,0,0,.67.167,1.314,1.314,0,0,0,.648-.167l11.211-6.468-11.863-6.452-11.914,6.434m-.1-14.458a1.429,1.429,0,0,0-.72,1.121v12.157a.669.669,0,0,0,0,.129l12.04-6.542v-13.39Zm12.634,6.861,12.032,6.509v-12.242a1.338,1.338,0,0,0-.662-1.121l-11.317-6.532h-.058Z" fill="#d7d7d7"/>
    </clipPath>
  </defs>
  <g id="Grupo_12018" data-name="Grupo 12018" transform="translate(-3479.927 -3488.164)">
    <g id="Grupo_12016" data-name="Grupo 12016">
      <g id="Grupo_568" data-name="Grupo 568">
        <path id="Caminho_299" data-name="Caminho 299" d="M3575.35,3508.722a7.194,7.194,0,0,1-5.707,7.264,7.921,7.921,0,0,1,6.986,8.249c0,5.59-4.518,8.95-11.88,8.95h-14.507v-32.638h14.165c6.751,0,10.943,3.08,10.943,8.158m-5.631.979c0-2.7-2.1-4.241-5.6-4.183h-8.366v8.575h8.366c3.5,0,5.6-1.581,5.6-4.376m1.256,13.83c0-2.886-2.56-4.652-6.853-4.61h-8.366v9.321h8.366c4.293,0,6.853-1.673,6.853-4.711" fill="#fff"/>
        <path id="Caminho_300" data-name="Caminho 300" d="M3600.09,3533.178l-5.967-9.873h-9.22v9.873h-5.5v-32.631h13.23c8.367,0,13.136,4.058,13.136,11.136,0,5.221-2.418,8.9-6.751,10.576l7.313,10.876Zm-7.454-14.768c5.019,0,7.922-2.142,7.922-6.567,0-4.281-2.886-6.334-7.922-6.334h-7.731v12.9Z" fill="#fff"/>
        <rect id="Ret창ngulo_2512" data-name="Ret창ngulo 2512" width="5.497" height="32.613" transform="translate(3610.298 3500.563)" fill="#fff"/>
        <path id="Caminho_301" data-name="Caminho 301" d="M3644.764,3500.563v4.945h-10.342v27.668h-5.5v-27.668H3618.64v-4.945Z" fill="#fff"/>
        <path id="Caminho_302" data-name="Caminho 302" d="M3666.765,3522.837H3648.04a7.531,7.531,0,0,0,7.681,6.191,9.623,9.623,0,0,0,6.986-2.886l2.844,3.029a13.461,13.461,0,0,1-10.247,4.183c-7.638,0-12.667-5.078-12.667-12.55s5.17-12.549,12.549-12.617c8.71,0,12.258,5.682,11.6,14.625m-4.661-3.912c-.185-4.008-2.845-6.426-6.895-6.426a7.065,7.065,0,0,0-7.27,6.426Z" fill="#fff"/>
        <path id="Caminho_303" data-name="Caminho 303" d="M3681.817,3512.919c-4.292,0-7.362,3.213-7.362,7.913s3.07,7.922,7.362,7.922a9.272,9.272,0,0,0,7.313-2.983l2.984,2.983c-2.234,2.937-5.857,4.61-10.526,4.61-7.363,0-12.484-5.078-12.484-12.549s5.129-12.6,12.484-12.6c4.467,0,7.965,1.438,10.247,4.049l-2.937,3.448a9.329,9.329,0,0,0-7.078-2.794" fill="#fff"/>
        <path id="Caminho_304" data-name="Caminho 304" d="M3717.972,3517.773v15.4h-5.364v-13.931a5.518,5.518,0,0,0-5.958-6.007c-4.425,0-7.086,3.347-7.086,7.731v12.207h-5.356v-34.563h5.355v14.625c1.773-3.5,4.937-5.019,9.209-5.019,5.774,0,9.21,3.631,9.21,9.546" fill="#fff"/>
      </g>
      <g id="Grupo_12015" data-name="Grupo 12015">
        <path id="Caminho_4499" data-name="Caminho 4499" d="M3494.979,3523.7l11.253,6.486a1.412,1.412,0,0,0,.67.167,1.314,1.314,0,0,0,.648-.167l11.211-6.468-11.863-6.452-11.914,6.434m-.1-14.458a1.429,1.429,0,0,0-.72,1.121v12.157a.669.669,0,0,0,0,.129l12.04-6.542v-13.39Zm12.634,6.861,12.032,6.509v-12.242a1.338,1.338,0,0,0-.662-1.121l-11.317-6.532h-.058Z" fill="#d7d7d7"/>
        <g id="Grupo_12014" data-name="Grupo 12014" clip-path="url(#clip-path)">
          <g id="Grupo_569" data-name="Grupo 569">
            <rect id="Ret창ngulo_2514" data-name="Ret창ngulo 2514" width="25.394" height="27.678" transform="translate(3494.157 3502.672)" fill="#d7d7d7"/>
          </g>
        </g>
      </g>
      <g id="Grupo_571" data-name="Grupo 571">
        <path id="Caminho_309" data-name="Caminho 309" d="M3489.733,3522.61v-12.193a1.262,1.262,0,0,0-.619-1.13l-7.6-4.124a1.055,1.055,0,0,0-1.581.945v20.819a1.071,1.071,0,0,0,1.064,1.079H3481a1.229,1.229,0,0,0,.535-.13l7.581-4.132a1.263,1.263,0,0,0,.618-1.13" fill="#fff"/>
        <path id="Caminho_310" data-name="Caminho 310" d="M3509.8,3498.84l11.37,6.563a1.262,1.262,0,0,0,.649.175,1.32,1.32,0,0,0,.618-.16l7.589-4.1a1.056,1.056,0,0,0,0-1.866l-19.273-11.137a1.08,1.08,0,0,0-.543-.15,1.054,1.054,0,0,0-1.055,1.054v8.476a1.348,1.348,0,0,0,.649,1.121" fill="#fff"/>
        <path id="Caminho_311" data-name="Caminho 311" d="M3483.809,3501.317l7.588,4.1a1.29,1.29,0,0,0,.619.159,1.248,1.248,0,0,0,.65-.173l11.3-6.568a1.254,1.254,0,0,0,.577-1.137v-8.455a1,1,0,0,0-.926-1.076l-.078,0a.972.972,0,0,0-.519.15l-19.238,11.136a1.038,1.038,0,0,0-.536.937,1.061,1.061,0,0,0,.577.928" fill="#fff"/>
        <path id="Caminho_312" data-name="Caminho 312" d="M3532.776,3505.022a.98.98,0,0,0-.5.143l-7.63,4.125a1.323,1.323,0,0,0-.678,1.13v12.193a1.331,1.331,0,0,0,.687,1.129l7.638,4.117a1.122,1.122,0,0,0,.544.13h0a.936.936,0,0,0,.761-.368,1.015,1.015,0,0,0,.192-.686v-20.823a1.021,1.021,0,0,0-.951-1.086l-.053,0" fill="#fff"/>
        <path id="Caminho_313" data-name="Caminho 313" d="M3503.973,3534.047l-11.2-6.492a1.355,1.355,0,0,0-1.256,0l-7.58,4.1a1.062,1.062,0,0,0,0,1.874l19.143,11.026a1.072,1.072,0,0,0,.552.15.939.939,0,0,0,.754-.389,1.09,1.09,0,0,0,.167-.694v-8.455a1.263,1.263,0,0,0-.577-1.12" fill="#fff"/>
        <path id="Caminho_314" data-name="Caminho 314" d="M3529.893,3531.637l-7.589-4.106a1.392,1.392,0,0,0-1.272,0l-11.227,6.509a1.323,1.323,0,0,0-.649,1.121v8.467a1.047,1.047,0,0,0,1.011,1.08h.068a1.137,1.137,0,0,0,.561-.151l19.122-11.046a1.071,1.071,0,0,0,0-1.874" fill="#fff"/>
      </g>
    </g>
    <g id="Grupo_12017" data-name="Grupo 12017">
      <path id="Caminho_4501" data-name="Caminho 4501" d="M3737.716,3511.137l-3.338-7.2a6.73,6.73,0,0,1,3.325-1.793,30.984,30.984,0,0,1,5.261-1.258c4.422-.359,8.958-1.032,13.085,1.287,2.569,1.444,4.653,3.488,5.162,6.576a38.79,38.79,0,0,1,.511,5.885c.064,6.125.023,12.251.023,18.413-1.313.707-2.666.2-3.93.412-2.912.476-4.984-.367-5.785-3.424-.034-.13-.238-.215-.494-.434a13.052,13.052,0,0,0-1.021.9,9.781,9.781,0,0,1-5.941,3.268c-3.9.5-7.815.659-10.778-2.65a8.4,8.4,0,0,1-2.43-5.791c.011-.911-.007-1.822-.023-2.733-.061-3.623,1.788-6.087,4.869-7.654a16.969,16.969,0,0,1,7.835-1.9c1.574.007,3.149.019,4.72-.053a1.428,1.428,0,0,0,1.2-2.4,3.047,3.047,0,0,0-2.632-1.571,16.024,16.024,0,0,0-7.921,1.518A13.124,13.124,0,0,1,3737.716,3511.137Zm12.548,7.993a34.312,34.312,0,0,0-4.071.473,5.257,5.257,0,0,0-2.364,1.2,3.022,3.022,0,0,0,.7,4.988c2.013.9,5.483-1.091,5.715-3.338C3750.353,3521.412,3750.264,3520.348,3750.264,3519.13Z" fill="#fff"/>
      <path id="Caminho_4502" data-name="Caminho 4502" d="M3791.929,3506c2.219-2.349,4.2-4.593,7.1-5.224,1.642-.356,3.426-.064,5.412-.064,0,1.607.068,3.071-.018,4.526-.1,1.719-.327,3.432-.515,5.146a1.193,1.193,0,0,1-1.3,1.2c-1.324,0-2.649-.049-3.972-.014-3.422.091-5.492,2.126-5.565,5.609-.077,3.639-.023,7.282-.025,10.923,0,1.65,0,3.3,0,5.095a13.9,13.9,0,0,1-1.728.238c-2.648.023-5.3.038-7.945,0-1.473-.022-1.72-.269-1.745-1.755-.042-2.482-.012-4.965-.012-7.448,0-6.951-.01-13.9.007-20.854,0-2.084.165-2.22,2.28-2.245,1.572-.019,3.148.06,4.716-.024a1.967,1.967,0,0,1,2.192,1.569C3791.115,3503.611,3791.435,3504.538,3791.929,3506Z" fill="#fff"/>
      <path id="Caminho_4503" data-name="Caminho 4503" d="M3766.295,3501.25h10.544c.4,1.987.543,27.7.188,31.929-1.73.576-3.55.178-5.332.252-1.727.072-3.458.016-5.017.016-.23-.2-.3-.252-.352-.315a.4.4,0,0,1-.118-.2q-.052-15.271-.089-30.545A8.385,8.385,0,0,1,3766.295,3501.25Z" fill="#fff"/>
      <path id="Caminho_4504" data-name="Caminho 4504" d="M3765.664,3493.484c-.032-3.094,1.462-4.773,4.736-5.2a11.132,11.132,0,0,1,4.824.709c2.078.656,2.83,3.851,2.289,5.918a4.107,4.107,0,0,1-3.79,3.252,13.171,13.171,0,0,1-4.092.078A4.419,4.419,0,0,1,3765.664,3493.484Z" fill="#fff"/>
    </g>
  </g>
</svg>
