<svg xmlns="http://www.w3.org/2000/svg" xmlns:xlink="http://www.w3.org/1999/xlink" width="84" height="77.736" viewBox="0 0 84 77.736">
  <defs>
    <linearGradient id="linear-gradient" y1="0.5" x2="1" y2="0.5" gradientUnits="objectBoundingBox">
      <stop offset="0" stop-color="#803290"/>
      <stop offset="1" stop-color="#40bbe0"/>
    </linearGradient>
  </defs>
  <g id="Grupo_12027" data-name="Grupo 12027" transform="translate(-166.45 -110.131)">
    <path id="Caminho_4513" data-name="Caminho 4513" d="M185.463,154.193l71.812-37.687-1.013,3.59,2.706.854,2.42-8.258-8.116-2.562-.854,2.705,3.573,1.128L184.14,151.672Z" transform="translate(-13.642)" fill="url(#linear-gradient)"/>
    <path id="Caminho_4514" data-name="Caminho 4514" d="M246.413,274.923v-43.88a4.338,4.338,0,0,0-4.333-4.334H231.342a4.338,4.338,0,0,0-4.333,4.334v43.88h-8.264V247.058a4.338,4.338,0,0,0-4.333-4.334H203.675a4.338,4.338,0,0,0-4.334,4.334v27.865h-7.065V257.881a4.338,4.338,0,0,0-4.334-4.334H177.206a4.338,4.338,0,0,0-4.333,4.334v17.042H166.45v2.848h84v-2.848Zm-56.882,0H175.619V257.881a1.589,1.589,0,0,1,1.588-1.588h10.737a1.589,1.589,0,0,1,1.588,1.588Zm26.469,0H202.087V247.058a1.59,1.59,0,0,1,1.588-1.588h10.737A1.589,1.589,0,0,1,216,247.058Zm27.668,0H229.755v-43.88a1.59,1.59,0,0,1,1.588-1.588h10.737a1.59,1.59,0,0,1,1.588,1.588Z" transform="translate(0 -89.904)" fill="url(#linear-gradient)"/>
  </g>
</svg>
