<svg id="Grupo_12060" data-name="Grupo 12060" xmlns="http://www.w3.org/2000/svg" xmlns:xlink="http://www.w3.org/1999/xlink" width="63.613" height="39.689" viewBox="0 0 63.613 39.689">
  <defs>
    <linearGradient id="linear-gradient" y1="0.5" x2="1" y2="0.5" gradientUnits="objectBoundingBox">
      <stop offset="0" stop-color="#803290"/>
      <stop offset="1" stop-color="#40bbe0"/>
    </linearGradient>
  </defs>
  <g id="Grupo_12029" data-name="Grupo 12029" transform="translate(0 6.286)">
    <path id="Caminho_4516" data-name="Caminho 4516" d="M1538.019,304.422H1494.5a6.784,6.784,0,0,1-6.776-6.776V277.794a6.784,6.784,0,0,1,6.776-6.776h43.524a6.784,6.784,0,0,1,6.776,6.776v19.851A6.784,6.784,0,0,1,1538.019,304.422ZM1494.5,272.933a4.867,4.867,0,0,0-4.862,4.862v19.851a4.867,4.867,0,0,0,4.862,4.862h43.524a4.867,4.867,0,0,0,4.862-4.862V277.794a4.867,4.867,0,0,0-4.862-4.862Z" transform="translate(-1487.719 -271.018)" fill="url(#linear-gradient)"/>
  </g>
  <g id="Grupo_12030" data-name="Grupo 12030" transform="translate(6.536 0)">
    <path id="Caminho_4517" data-name="Caminho 4517" d="M1578.987,265.025v-1.915a4.867,4.867,0,0,0,4.862-4.862V238.4a4.867,4.867,0,0,0-4.862-4.862h-43.524a4.867,4.867,0,0,0-4.861,4.862h-1.915a6.784,6.784,0,0,1,6.776-6.776h43.524a6.784,6.784,0,0,1,6.776,6.776v19.851A6.784,6.784,0,0,1,1578.987,265.025Z" transform="translate(-1528.687 -231.622)" fill="url(#linear-gradient)"/>
  </g>
  <g id="Grupo_12031" data-name="Grupo 12031" transform="translate(18.554 13.003)">
    <path id="Caminho_4518" data-name="Caminho 4518" d="M1613.993,333.09a9.984,9.984,0,1,1,9.984-9.984A10,10,0,0,1,1613.993,333.09Zm0-18.054a8.07,8.07,0,1,0,8.07,8.07A8.079,8.079,0,0,0,1613.993,315.036Z" transform="translate(-1604.009 -313.121)" fill="url(#linear-gradient)"/>
  </g>
  <g id="Grupo_12033" data-name="Grupo 12033" transform="translate(24.713 17.192)">
    <g id="Grupo_12032" data-name="Grupo 12032" transform="translate(0 0)">
      <path id="Caminho_4519" data-name="Caminho 4519" d="M1645.992,349.688a3.868,3.868,0,0,1-3.378-1.95l1.112-1.044a2.786,2.786,0,0,0,2.266,1.634v-2.5c-1.469-.289-3.049-.714-3.049-2.472,0-1.415,1.112-2.513,3.049-2.692v-1.291h1.181v1.291a3.71,3.71,0,0,1,3.09,1.73l-1.057,1.085a2.492,2.492,0,0,0-2.032-1.456v2.554c1.469.3,3.049.742,3.049,2.541,0,1.47-1.249,2.4-3.049,2.554v1.291h-1.181Zm0-7.649c-.865.124-1.318.549-1.318,1.2s.577.906,1.318,1.1Zm2.513,5.177c0-.659-.59-.934-1.332-1.126v2.239C1648.011,348.233,1648.506,347.89,1648.506,347.216Z" transform="translate(-1642.614 -339.375)" fill="url(#linear-gradient)"/>
    </g>
  </g>
  <g id="Grupo_12034" data-name="Grupo 12034" transform="translate(42.631 22.95)">
    <rect id="Ret창ngulo_3866" data-name="Ret창ngulo 3866" width="8.799" height="1.915" transform="translate(0 0)" fill="url(#linear-gradient)"/>
  </g>
  <g id="Grupo_12035" data-name="Grupo 12035" transform="translate(5.846 22.95)">
    <rect id="Ret창ngulo_3867" data-name="Ret창ngulo 3867" width="8.799" height="1.915" transform="translate(0 0)" fill="url(#linear-gradient)"/>
  </g>
</svg>
