<svg xmlns="http://www.w3.org/2000/svg" xmlns:xlink="http://www.w3.org/1999/xlink" width="91" height="75.846" viewBox="0 0 91 75.846">
  <defs>
    <linearGradient id="linear-gradient" y1="0.5" x2="1" y2="0.5" gradientUnits="objectBoundingBox">
      <stop offset="0" stop-color="#803290"/>
      <stop offset="1" stop-color="#40bbe0"/>
    </linearGradient>
  </defs>
  <g id="Grupo_12052" data-name="Grupo 12052" transform="translate(-352.939 -730.544)">
    <path id="Caminho_4531" data-name="Caminho 4531" d="M469.279,827.884a20.964,20.964,0,1,0,20.964-20.964A20.988,20.988,0,0,0,469.279,827.884Zm39.378,0a18.414,18.414,0,1,1-18.414-18.414A18.435,18.435,0,0,1,508.657,827.884Z" transform="translate(-91.616 -60.145)" fill="url(#linear-gradient)"/>
    <path id="Caminho_4532" data-name="Caminho 4532" d="M536.041,846.088V848.9c-4.223.389-6.649,2.785-6.649,5.871,0,3.834,3.445,4.763,6.649,5.392v5.452a6.076,6.076,0,0,1-4.942-3.565l-2.426,2.276c1.407,2.516,3.744,3.985,7.368,4.254v2.786h2.577v-2.816c3.924-.329,6.649-2.366,6.649-5.572,0-3.924-3.445-4.882-6.649-5.541v-5.572a5.436,5.436,0,0,1,4.433,3.176l2.307-2.367a8.094,8.094,0,0,0-6.74-3.774v-2.815Zm0,10.813c-1.617-.419-2.875-.989-2.875-2.4s.989-2.337,2.875-2.606Zm5.482,6.29c0,1.468-1.079,2.217-2.906,2.427v-4.883C540.236,861.154,541.523,861.754,541.523,863.191Z" transform="translate(-138.388 -90.989)" fill="url(#linear-gradient)"/>
    <path id="Caminho_4533" data-name="Caminho 4533" d="M370.641,761.985l-6.647,6.647c-.008-.3-.013-.6-.013-.893a34.65,34.65,0,0,1,65.109-16.513l2.241-1.217a37.2,37.2,0,0,0-32.705-19.465,36.8,36.8,0,0,0-23.219,8.136,37.1,37.1,0,0,0-13.976,29.059c0,.3.005.611.013.918l-6.7-6.7-1.8,1.8,9.767,9.766.883-.883h0l8.885-8.885Zm-8.078,7.789.306-.017-.161.161Z" transform="translate(0 0)" fill="url(#linear-gradient)"/>
    <path id="Caminho_4534" data-name="Caminho 4534" d="M488.77,894.966,479,885.2l-.883.883v0l-8.885,8.885,1.834,1.772,6.647-6.646c.007.3.012.6.012.893a34.839,34.839,0,0,1-.94,8.054h0a34.657,34.657,0,0,1-64.642,7.555l-2.276,1.151a37.193,37.193,0,0,0,33.214,20.436,36.8,36.8,0,0,0,23.219-8.135,37.364,37.364,0,0,0,12.966-20.415l-1.24-.3,1.24.3a37.371,37.371,0,0,0,1.01-8.644c0-.3-.005-.611-.013-.917l6.7,6.7Zm-9.93-6L479,888.8l.145.145Z" transform="translate(-44.831 -121.79)" fill="url(#linear-gradient)"/>
  </g>
</svg>
