<svg id="Camada_1" data-name="Camada 1" xmlns="http://www.w3.org/2000/svg" xmlns:xlink="http://www.w3.org/1999/xlink" viewBox="0 0 591.04 620.94"><defs><style>.cls-1{fill:url(#Gradiente_sem_nome_2);}.cls-2{fill:url(#Gradiente_sem_nome_2-2);}.cls-3{fill:url(#Gradiente_sem_nome_2-3);}.cls-4{fill:url(#Gradiente_sem_nome_2-4);}.cls-5{fill:url(#Gradiente_sem_nome_2-5);}.cls-6{fill:url(#Gradiente_sem_nome_2-6);}.cls-7{fill:url(#Gradiente_sem_nome_2-7);}.cls-8{fill:url(#Gradiente_sem_nome_2-8);}</style><linearGradient id="Gradiente_sem_nome_2" x1="191.29" y1="310.47" x2="399.75" y2="310.47" gradientUnits="userSpaceOnUse"><stop offset="0" stop-color="#803290"/><stop offset="1" stop-color="#40bbe0"/></linearGradient><linearGradient id="Gradiente_sem_nome_2-2" x1="254.04" y1="310.47" x2="337" y2="310.47" xlink:href="#Gradiente_sem_nome_2"/><linearGradient id="Gradiente_sem_nome_2-3" x1="263.58" y1="86.77" x2="329.72" y2="86.77" xlink:href="#Gradiente_sem_nome_2"/><linearGradient id="Gradiente_sem_nome_2-4" x1="47.02" y1="195.57" x2="152.25" y2="195.57" xlink:href="#Gradiente_sem_nome_2"/><linearGradient id="Gradiente_sem_nome_2-5" x1="45.89" y1="423.16" x2="150.81" y2="423.16" xlink:href="#Gradiente_sem_nome_2"/><linearGradient id="Gradiente_sem_nome_2-6" x1="261.32" y1="534.16" x2="327.46" y2="534.16" xlink:href="#Gradiente_sem_nome_2"/><linearGradient id="Gradiente_sem_nome_2-7" x1="438.75" y1="425.36" x2="544.03" y2="425.36" xlink:href="#Gradiente_sem_nome_2"/><linearGradient id="Gradiente_sem_nome_2-8" x1="440.21" y1="197.77" x2="545.16" y2="197.77" xlink:href="#Gradiente_sem_nome_2"/></defs><path class="cls-1" d="M191.29,310.47A104.23,104.23,0,1,0,295.52,206.23,104.35,104.35,0,0,0,191.29,310.47Zm195.79,0a91.56,91.56,0,1,1-91.56-91.56A91.66,91.66,0,0,1,387.08,310.47Z"/><path class="cls-2" d="M290.68,247.62v14c-21,1.93-33.06,13.85-33.06,29.19,0,19.06,17.12,23.68,33.06,26.8v27.11c-11.32-1.78-20.85-8-24.57-17.72L254,338.31c7,12.52,18.62,19.82,36.64,21.15v13.86h12.81v-14c19.51-1.63,33.06-11.76,33.06-27.7,0-19.51-17.13-24.27-33.06-27.55v-27.7c10.12,1.19,16.53,6,22,15.79L337,280.38c-7.6-10.87-16.68-17.57-33.51-18.76v-14Zm0,53.76c-8-2.09-14.3-4.91-14.3-11.91s4.92-11.62,14.3-13Zm27.26,31.28c0,7.3-5.37,11-14.45,12.06V320.44C311.53,322.53,317.94,325.51,317.94,332.66Z"/><path class="cls-3" d="M296.65,33.11a32.57,32.57,0,0,0-8.93,64v43.3h18.49V97a32.57,32.57,0,0,0-9.56-63.85Zm0,46.75a14.14,14.14,0,1,1,14.58-14.12A14.37,14.37,0,0,1,296.65,79.86Z"/><path class="cls-4" d="M112.07,178.81a32.47,32.47,0,0,0-15.5-20A33.41,33.41,0,0,0,51.5,170.77a32,32,0,0,0-3.37,24.7,32.44,32.44,0,0,0,15.5,20A33.15,33.15,0,0,0,80,219.75h0a33.54,33.54,0,0,0,22.5-8.66l39.75,25.51,10-15.55-40.13-25.76A32,32,0,0,0,112.07,178.81ZM72.75,199.33A14.12,14.12,0,0,1,66,190.68a13.73,13.73,0,0,1,1.44-10.55A14.67,14.67,0,0,1,80.11,173h0a15,15,0,0,1,7.34,1.93,14.17,14.17,0,0,1,6.76,8.66,13.65,13.65,0,0,1-1.46,10.55A14.8,14.8,0,0,1,72.75,199.33Z"/><path class="cls-5" d="M140.82,381.84l-39.94,25.64A33.53,33.53,0,0,0,62.5,403.6a32.42,32.42,0,0,0-15.5,20,32,32,0,0,0,3.37,24.71A33.22,33.22,0,0,0,79,464.49h0a33.18,33.18,0,0,0,16.39-4.31,32.42,32.42,0,0,0,15.5-20,31.94,31.94,0,0,0-.11-17.16l40-25.67Zm-47.74,53.6a14.13,14.13,0,0,1-6.76,8.66,14.83,14.83,0,0,1-20-5.21,13.73,13.73,0,0,1-1.44-10.55,14.09,14.09,0,0,1,6.76-8.65A14.78,14.78,0,0,1,79,417.75a14.64,14.64,0,0,1,12.67,7.14A13.74,13.74,0,0,1,93.08,435.44Z"/><path class="cls-6" d="M303.32,523.8V480.5H284.83V524a33.08,33.08,0,1,0,18.49-.18Zm-8.93,45.54A14.14,14.14,0,1,1,309,555.2,14.39,14.39,0,0,1,294.39,569.34Z"/><path class="cls-7" d="M527.41,405.51a33.54,33.54,0,0,0-38.91,4.33l-39.76-25.52-10,15.55,40.17,25.78a31.94,31.94,0,0,0,.05,16.47,32.51,32.51,0,0,0,15.51,20,33,33,0,0,0,16.38,4.31h0a33.23,33.23,0,0,0,28.68-16.23,32,32,0,0,0,3.37-24.7A32.42,32.42,0,0,0,527.41,405.51Zm-3.81,35.28a14.79,14.79,0,0,1-20,5.21,14.13,14.13,0,0,1-6.76-8.66,13.7,13.7,0,0,1,1.45-10.55,14.62,14.62,0,0,1,12.66-7.13h0a14.91,14.91,0,0,1,7.35,1.93,14.07,14.07,0,0,1,6.75,8.65A13.65,13.65,0,0,1,523.6,440.79Z"/><path class="cls-8" d="M540.67,172.68a33.39,33.39,0,0,0-45.06-11.9,32.47,32.47,0,0,0-15.51,20,31.91,31.91,0,0,0,.11,17.1l-40,25.68,10,15.55,39.92-25.63a33.53,33.53,0,0,0,22,8.23h0a33.15,33.15,0,0,0,16.4-4.32,32.47,32.47,0,0,0,15.5-20A32,32,0,0,0,540.67,172.68Zm-14.49,19.93a14.15,14.15,0,0,1-6.75,8.66,14.8,14.8,0,0,1-20-5.21A13.69,13.69,0,0,1,498,185.51a14.11,14.11,0,0,1,6.75-8.65,14.78,14.78,0,0,1,7.35-1.94h0a14.68,14.68,0,0,1,12.67,7.14A13.69,13.69,0,0,1,526.18,192.61Z"/></svg>