<svg xmlns="http://www.w3.org/2000/svg" xmlns:xlink="http://www.w3.org/1999/xlink" width="65.087" height="65.086" viewBox="0 0 65.087 65.086">
  <defs>
    <linearGradient id="linear-gradient" y1="0.5" x2="1" y2="0.5" gradientUnits="objectBoundingBox">
      <stop offset="0" stop-color="#803290"/>
      <stop offset="1" stop-color="#40bbe0"/>
    </linearGradient>
  </defs>
  <path id="Caminho_4539" data-name="Caminho 4539" d="M1628.732-105a32.58,32.58,0,0,0-32.543,32.543,32.58,32.58,0,0,0,32.543,32.543,32.58,32.58,0,0,0,32.543-32.543A32.58,32.58,0,0,0,1628.732-105Zm0,2.1a30.373,30.373,0,0,1,7.959,1.063c-.161.825-.312,1.629-.412,2.3a18.9,18.9,0,0,0-.213,2.315l-.007.238a7.748,7.748,0,0,1-.142,1.491,3.761,3.761,0,0,1-.244.744c-.147-.1-.313-.223-.425-.306l-.4-.3c-.608-.454-1.365-1.019-2.029-1.462A9.434,9.434,0,0,0,1630.568-98a1.85,1.85,0,0,0-2.475.8,4.361,4.361,0,0,0-.122,2.988,9.339,9.339,0,0,0,1.433,2.645l.087.127c.519.76,1.255,1.856,1.81,2.757a5.1,5.1,0,0,1,.47.894,8.264,8.264,0,0,1-1.716.844l-.43.176a9.876,9.876,0,0,0-2.478,1.393,12.743,12.743,0,0,0-2.055,2.143c-.644.821-1.286,1.76-1.836,2.574a6.26,6.26,0,0,0-1.144,2.307,7.711,7.711,0,0,0-.034,2.1l.016.217a6.471,6.471,0,0,1,.023.795,4.8,4.8,0,0,1-.851-.5,6.607,6.607,0,0,1-.737-.654c-.178-.175-.347-.339-.522-.486a4.315,4.315,0,0,0-1.651-.865,3.546,3.546,0,0,0-1.856.019,2.72,2.72,0,0,0-2.107,1.569,3.6,3.6,0,0,0,.487,2.883,8.026,8.026,0,0,0,1.5,2.074,5.979,5.979,0,0,0,.95.718c.134.087.27.173.412.279.21.158.45.374.7.6.218.2.439.394.66.574.309.252.614.47.882.662.175.124.341.243.493.36a2.557,2.557,0,0,1,.39.355,1.643,1.643,0,0,1-1.016.063,10.84,10.84,0,0,1-2.47-1.122,29.664,29.664,0,0,0-2.786-1.4c-.5-.21-1-.391-1.49-.566-.445-.159-.865-.311-1.213-.459a6.845,6.845,0,0,1-1.7-1.058,9.69,9.69,0,0,1-1.817-1.807,8.849,8.849,0,0,1-1.127-2.414c-.348-1.02-.687-2.172-.982-3.332a16.222,16.222,0,0,1-.559-3.134,6.372,6.372,0,0,1,.389-2.081l.072-.246a23.426,23.426,0,0,0,.889-4.191,28.665,28.665,0,0,0,0-4.429,30.359,30.359,0,0,1,21.672-9.086ZM1598.289-72.46a30.293,30.293,0,0,1,6.755-19.092,17.789,17.789,0,0,1-.073,1.953,21.491,21.491,0,0,1-.816,3.814l-.07.242a8.216,8.216,0,0,0-.474,2.723,16.81,16.81,0,0,0,.622,3.6c.309,1.212.665,2.42,1.03,3.491a10.793,10.793,0,0,0,1.411,2.966,11.671,11.671,0,0,0,2.208,2.217,8.831,8.831,0,0,0,2.189,1.349c.407.174.856.335,1.33.505s.938.337,1.389.526a28.667,28.667,0,0,1,2.635,1.33,11.938,11.938,0,0,0,3,1.309,4.224,4.224,0,0,0,.869.091,3.236,3.236,0,0,0,1.887-.552,1.935,1.935,0,0,0,.759-2.192,3.163,3.163,0,0,0-1.167-1.478c-.175-.136-.365-.272-.565-.414-.246-.175-.509-.361-.771-.576-.2-.161-.395-.338-.588-.512-.276-.248-.563-.5-.847-.717-.184-.138-.36-.252-.534-.365a4,4,0,0,1-.641-.475,6.077,6.077,0,0,1-1.08-1.513,2.88,2.88,0,0,1-.4-1.161,1.3,1.3,0,0,1,.662-.292,1.477,1.477,0,0,1,.812-.025,2.245,2.245,0,0,1,.842.447c.133.111.259.236.393.369a8.432,8.432,0,0,0,.971.853,5.187,5.187,0,0,0,2.385,1.032,1.653,1.653,0,0,0,1.74-1.567,6.4,6.4,0,0,0,.035-1.616l-.018-.228a6.187,6.187,0,0,1,0-1.523,4.543,4.543,0,0,1,.824-1.543c.531-.786,1.148-1.688,1.75-2.456a10.691,10.691,0,0,1,1.707-1.794,7.854,7.854,0,0,1,1.984-1.1l.412-.169a6.55,6.55,0,0,0,2.6-1.521c.93-1.162.152-2.426-.363-3.262-.576-.936-1.332-2.062-1.864-2.841l-.087-.128a7.839,7.839,0,0,1-1.149-2.044,2.945,2.945,0,0,1-.091-1.211l.031.01a7.592,7.592,0,0,1,1.728.924c.618.412,1.319.935,1.938,1.4l.4.3c.739.549,1.66,1.232,2.645.653a3.7,3.7,0,0,0,1.323-2.315,9.51,9.51,0,0,0,.192-1.89l.007-.229a16.939,16.939,0,0,1,.191-2.075c.086-.57.214-1.261.354-1.986a30.367,30.367,0,0,1,5.253,2.412c.252,1.3.5,2.565.662,3.433a17.984,17.984,0,0,1,.3,1.875c.04.481.04,1.029.04,1.662a7.335,7.335,0,0,0,.3,2.441,5.127,5.127,0,0,0,1.679,2.322,9.22,9.22,0,0,0,.773.531,3.481,3.481,0,0,1,.862.666,4.386,4.386,0,0,1,.559,1.781l.071.441a12.149,12.149,0,0,0,.38,1.807c.088.275.2.535.3.795a5.628,5.628,0,0,1,.327.93,4.093,4.093,0,0,1-.058,1.871c-.078.3-.2.631-.32.98a12.87,12.87,0,0,0-.568,1.922,19.441,19.441,0,0,0-.216,3.917,21.265,21.265,0,0,0,.258,3.433,7.421,7.421,0,0,0,1.006,2.678,3.709,3.709,0,0,0,1.773,1.5,4.717,4.717,0,0,0,.474.148c.059.016.133.037.188.054a2.672,2.672,0,0,1-.15,1.2,12.083,12.083,0,0,1-.891,1.86c-.145.266-.293.54-.442.823a28.357,28.357,0,0,0-1.779,4.313c-.622,1.868-1.359,4.441-2.078,6.967a30.258,30.258,0,0,1-18.684,6.439,30.478,30.478,0,0,1-30.443-30.443Zm52.057,21.414c.4-1.376.791-2.663,1.139-3.709a25.667,25.667,0,0,1,1.65-4.007c.141-.272.284-.533.423-.789a13.547,13.547,0,0,0,1.044-2.215,3.834,3.834,0,0,0-.046-2.972,2.159,2.159,0,0,0-1.436-.961,2.907,2.907,0,0,1-.28-.085,1.669,1.669,0,0,1-.763-.687,5.413,5.413,0,0,1-.7-1.913,19.485,19.485,0,0,1-.223-3.086,17.793,17.793,0,0,1,.177-3.476,10.971,10.971,0,0,1,.485-1.619c.135-.378.275-.769.376-1.165a6.218,6.218,0,0,0,.073-2.855,7.626,7.626,0,0,0-.437-1.275c-.087-.207-.173-.412-.243-.629a10.548,10.548,0,0,1-.306-1.5l-.074-.456a5.994,5.994,0,0,0-.972-2.724,5.169,5.169,0,0,0-1.394-1.15,7.241,7.241,0,0,1-.6-.409,3.049,3.049,0,0,1-.99-1.353,5.538,5.538,0,0,1-.183-1.758c0-.681,0-1.269-.047-1.836a19.9,19.9,0,0,0-.332-2.093c-.078-.411-.175-.912-.281-1.462a30.416,30.416,0,0,1,12.77,24.764,30.342,30.342,0,0,1-8.829,21.414Zm-8.005-11.65-.222-.056a7.25,7.25,0,0,1-1.429-.456,2.549,2.549,0,0,1-.98-.854c-.107-.157-.2-.329-.3-.5a4.137,4.137,0,0,0-1.028-1.342,3.691,3.691,0,0,0-1.653-.6c-.212-.04-.442-.082-.69-.146-.317-.081-.683-.2-1.073-.331a17.677,17.677,0,0,0-1.927-.555,8.712,8.712,0,0,0-3.5-.023,7.36,7.36,0,0,0-3.017,1.315,8,8,0,0,0-1.674,1.9l-.266.383c-.314.451-.611.876-.882,1.341a6.193,6.193,0,0,0-.807,2.107,4.212,4.212,0,0,0,.522,2.888,10.3,10.3,0,0,0,2.3,2.493c.147.12.286.231.421.336a3.837,3.837,0,0,1,1.067,1.068,5.641,5.641,0,0,1,.644,2.338,6.219,6.219,0,0,1-.229,1.774l-.076.336a5.559,5.559,0,0,0-.086,2.49c.3,1.329,1.1,2.179,2.1,2.217h0l.071,0c.849,0,1.719-.577,2.8-1.86.218-.257.434-.532.651-.808a9.607,9.607,0,0,1,1.4-1.557,5.1,5.1,0,0,1,1.632-.736c.217-.07.436-.141.657-.22a15.557,15.557,0,0,0,3.214-1.638,14.192,14.192,0,0,0,3.263-2.741,4.568,4.568,0,0,0,.821-1.877,3.87,3.87,0,0,1,.133-.484,5.2,5.2,0,0,1,.458-.823,8.458,8.458,0,0,0,.588-1.041,2.766,2.766,0,0,0-.208-3.045,5.255,5.255,0,0,0-2.7-1.29Zm.99,3.472a6.647,6.647,0,0,1-.451.786,6.718,6.718,0,0,0-.645,1.2,5.656,5.656,0,0,0-.214.751,2.541,2.541,0,0,1-.451,1.088,11.891,11.891,0,0,1-2.729,2.245,13.339,13.339,0,0,1-2.779,1.424c-.2.071-.4.136-.6.2a6.882,6.882,0,0,0-2.277,1.076,11.024,11.024,0,0,0-1.763,1.917c-.2.255-.4.51-.6.749a4.853,4.853,0,0,1-1.12,1.059,1.738,1.738,0,0,1-.2-.525,3.62,3.62,0,0,1,.089-1.578l.07-.313a8.255,8.255,0,0,0,.28-2.344,7.724,7.724,0,0,0-.931-3.305,5.712,5.712,0,0,0-1.578-1.654c-.124-.1-.254-.2-.389-.309a8.216,8.216,0,0,1-1.814-1.925,2.107,2.107,0,0,1-.264-1.485,4.04,4.04,0,0,1,.549-1.394c.229-.391.489-.764.791-1.2l.272-.391a6.121,6.121,0,0,1,1.232-1.436,5.232,5.232,0,0,1,2.144-.916,6.478,6.478,0,0,1,1.271-.126,6.866,6.866,0,0,1,1.394.145,15.885,15.885,0,0,1,1.7.493c.424.14.823.273,1.209.371.3.076.571.129.823.176a2.535,2.535,0,0,1,.769.21,2.983,2.983,0,0,1,.47.7c.125.222.252.446.392.652a4.62,4.62,0,0,0,1.777,1.552,8.995,8.995,0,0,0,1.85.612l.218.056a4.747,4.747,0,0,1,1.634.635c.076.09.062.4-.122.8Z" transform="translate(-1596.189 105.003)" fill="url(#linear-gradient)"/>
</svg>
