<svg xmlns="http://www.w3.org/2000/svg" xmlns:xlink="http://www.w3.org/1999/xlink" width="116.018" height="79.454" viewBox="0 0 116.018 79.454">
  <defs>
    <linearGradient id="linear-gradient" y1="0.5" x2="1" y2="0.5" gradientUnits="objectBoundingBox">
      <stop offset="0" stop-color="#803290"/>
      <stop offset="1" stop-color="#40bbe0"/>
    </linearGradient>
  </defs>
  <g id="Grupo_12132" data-name="Grupo 12132" transform="translate(-2264.392 -703.037)">
    <path id="Caminho_4563" data-name="Caminho 4563" d="M2373.639,751.96h-5.862V741.915h-.868V741.9h-44.123v-8.328h8.11a6.778,6.778,0,0,0,6.77-6.77V709.807a6.778,6.778,0,0,0-6.77-6.77h-16.991a6.778,6.778,0,0,0-6.77,6.77V726.8a6.778,6.778,0,0,0,6.77,6.77h7.146V741.9h-40.526v-.006h-1.735V751.96h-7.628a6.778,6.778,0,0,0-6.77,6.77v16.991a6.778,6.778,0,0,0,6.77,6.77h16.991a6.778,6.778,0,0,0,6.77-6.77V758.73a6.778,6.778,0,0,0-6.77-6.77h-7.628v-8.328h40.526v8.328h-7.146a6.778,6.778,0,0,0-6.77,6.77v16.991a6.778,6.778,0,0,0,6.77,6.77H2330.9a6.778,6.778,0,0,0,6.77-6.77V758.73a6.778,6.778,0,0,0-6.77-6.77h-8.11v-8.328h43.255v8.328h-9.393a6.778,6.778,0,0,0-6.77,6.77v16.991a6.778,6.778,0,0,0,6.77,6.77h16.991a6.778,6.778,0,0,0,6.771-6.77V758.73A6.778,6.778,0,0,0,2373.639,751.96Zm-85.486,1.735a5.04,5.04,0,0,1,5.035,5.035v16.991a5.04,5.04,0,0,1-5.035,5.035h-16.991a5.04,5.04,0,0,1-5.035-5.035V758.73a5.04,5.04,0,0,1,5.035-5.035Zm42.743,0a5.04,5.04,0,0,1,5.034,5.035v16.991a5.04,5.04,0,0,1-5.034,5.035h-16.991a5.04,5.04,0,0,1-5.034-5.035V758.73a5.04,5.04,0,0,1,5.034-5.035Zm-16.991-21.862a5.04,5.04,0,0,1-5.034-5.035V709.807a5.04,5.04,0,0,1,5.034-5.035H2330.9a5.04,5.04,0,0,1,5.034,5.035V726.8a5.04,5.04,0,0,1-5.034,5.035Zm64.769,43.888a5.04,5.04,0,0,1-5.035,5.035h-16.991a5.04,5.04,0,0,1-5.035-5.035V758.73a5.04,5.04,0,0,1,5.035-5.035h16.991a5.04,5.04,0,0,1,5.035,5.035Z" fill="url(#linear-gradient)"/>
    <g id="Grupo_12122" data-name="Grupo 12122" transform="translate(2270.972 757.418)">
      <g id="Grupo_12120" data-name="Grupo 12120" transform="translate(3.712 0)">
        <path id="Caminho_4564" data-name="Caminho 4564" d="M2340.525,1088.991a4.974,4.974,0,1,1,4.974-4.974A4.98,4.98,0,0,1,2340.525,1088.991Zm0-8.878a3.9,3.9,0,1,0,3.9,3.9A3.908,3.908,0,0,0,2340.525,1080.113Z" transform="translate(-2335.551 -1079.043)" fill="url(#linear-gradient)"/>
      </g>
      <g id="Grupo_12121" data-name="Grupo 12121" transform="translate(0 10.929)">
        <path id="Caminho_4565" data-name="Caminho 4565" d="M2327.26,1163.3h-1.07a7.615,7.615,0,1,0-15.231,0h-1.07a8.686,8.686,0,1,1,17.372,0Z" transform="translate(-2309.888 -1154.613)" fill="url(#linear-gradient)"/>
      </g>
    </g>
    <g id="Grupo_12125" data-name="Grupo 12125" transform="translate(2313.715 757.418)">
      <g id="Grupo_12123" data-name="Grupo 12123" transform="translate(3.712 0)">
        <path id="Caminho_4566" data-name="Caminho 4566" d="M2636.064,1088.991a4.974,4.974,0,1,1,4.975-4.974A4.98,4.98,0,0,1,2636.064,1088.991Zm0-8.878a3.9,3.9,0,1,0,3.9,3.9A3.908,3.908,0,0,0,2636.064,1080.113Z" transform="translate(-2631.09 -1079.043)" fill="url(#linear-gradient)"/>
      </g>
      <g id="Grupo_12124" data-name="Grupo 12124" transform="translate(0 10.929)">
        <path id="Caminho_4567" data-name="Caminho 4567" d="M2622.8,1163.3h-1.07a7.616,7.616,0,0,0-15.231,0h-1.07a8.686,8.686,0,1,1,17.372,0Z" transform="translate(-2605.427 -1154.613)" fill="url(#linear-gradient)"/>
      </g>
    </g>
    <g id="Grupo_12128" data-name="Grupo 12128" transform="translate(2313.715 708.495)">
      <g id="Grupo_12126" data-name="Grupo 12126" transform="translate(3.712 0)">
        <path id="Caminho_4568" data-name="Caminho 4568" d="M2636.064,750.725a4.974,4.974,0,1,1,4.975-4.974A4.98,4.98,0,0,1,2636.064,750.725Zm0-8.878a3.9,3.9,0,1,0,3.9,3.9A3.908,3.908,0,0,0,2636.064,741.846Z" transform="translate(-2631.09 -740.776)" fill="url(#linear-gradient)"/>
      </g>
      <g id="Grupo_12127" data-name="Grupo 12127" transform="translate(0 10.93)">
        <path id="Caminho_4569" data-name="Caminho 4569" d="M2622.8,825.033h-1.07a7.616,7.616,0,0,0-15.231,0h-1.07a8.686,8.686,0,0,1,17.372,0Z" transform="translate(-2605.427 -816.347)" fill="url(#linear-gradient)"/>
      </g>
    </g>
    <g id="Grupo_12131" data-name="Grupo 12131" transform="translate(2356.458 757.418)">
      <g id="Grupo_12129" data-name="Grupo 12129" transform="translate(3.712 0)">
        <path id="Caminho_4570" data-name="Caminho 4570" d="M2931.6,1088.991a4.974,4.974,0,1,1,4.974-4.974A4.98,4.98,0,0,1,2931.6,1088.991Zm0-8.878a3.9,3.9,0,1,0,3.9,3.9A3.908,3.908,0,0,0,2931.6,1080.113Z" transform="translate(-2926.628 -1079.043)" fill="url(#linear-gradient)"/>
      </g>
      <g id="Grupo_12130" data-name="Grupo 12130" transform="translate(0 10.929)">
        <path id="Caminho_4571" data-name="Caminho 4571" d="M2918.336,1163.3h-1.07a7.616,7.616,0,1,0-15.231,0h-1.07a8.686,8.686,0,1,1,17.372,0Z" transform="translate(-2900.965 -1154.613)" fill="url(#linear-gradient)"/>
      </g>
    </g>
  </g>
</svg>
