<svg xmlns="http://www.w3.org/2000/svg" width="27.505" height="19.042" viewBox="0 0 27.505 19.042">
  <path id="Caminho_4562" data-name="Caminho 4562" d="M2368.388,142.239h-18.195a4.655,4.655,0,0,0-4.655,4.655v9.732h0a4.653,4.653,0,0,0,4.655,4.655h18.195a4.655,4.655,0,0,0,4.655-4.655v-9.732h0a4.657,4.657,0,0,0-4.655-4.655Zm-3.711,9.707-8.252,4.231a.21.21,0,0,1-.206-.006.213.213,0,0,1-.1-.18v-8.463a.213.213,0,0,1,.1-.179.21.21,0,0,1,.206-.007l8.252,4.231a.212.212,0,0,1,0,.377Z" transform="translate(-2345.538 -142.239)" fill="#3dc2e4"/>
</svg>
