<svg xmlns="http://www.w3.org/2000/svg" xmlns:xlink="http://www.w3.org/1999/xlink" width="83.928" height="77.67" viewBox="0 0 83.928 77.67">
  <defs>
    <linearGradient id="linear-gradient" y1="0.5" x2="1" y2="0.5" gradientUnits="objectBoundingBox">
      <stop offset="0" stop-color="#0a5711"/>
      <stop offset="1" stop-color="#94cc33"/>
    </linearGradient>
  </defs>
  <g id="Grupo_12222" data-name="Grupo 12222" transform="translate(-166.45 -110.131)">
    <path id="Caminho_4638" data-name="Caminho 4638" d="M185.462,154.156l71.75-37.655-1.012,3.587,2.7.854,2.418-8.251-8.109-2.56-.853,2.7,3.57,1.127-71.79,37.675Z" transform="translate(-13.646)" fill="url(#linear-gradient)"/>
    <path id="Caminho_4639" data-name="Caminho 4639" d="M246.344,274.882V231.04a4.335,4.335,0,0,0-4.33-4.33H231.287a4.335,4.335,0,0,0-4.33,4.33v43.843H218.7V247.041a4.335,4.335,0,0,0-4.33-4.33H203.643a4.335,4.335,0,0,0-4.33,4.33v27.841h-7.059V257.855a4.335,4.335,0,0,0-4.33-4.33H177.2a4.335,4.335,0,0,0-4.33,4.33v17.028H166.45v2.845h83.928v-2.845Zm-56.834,0h-13.9V257.855a1.588,1.588,0,0,1,1.586-1.586h10.727a1.588,1.588,0,0,1,1.586,1.586Zm26.446,0h-13.9V247.041a1.588,1.588,0,0,1,1.586-1.586h10.728a1.588,1.588,0,0,1,1.586,1.586Zm27.644,0H229.7V231.04a1.588,1.588,0,0,1,1.586-1.586h10.728a1.588,1.588,0,0,1,1.586,1.586Z" transform="translate(0 -89.927)" fill="url(#linear-gradient)"/>
  </g>
</svg>
