<svg xmlns="http://www.w3.org/2000/svg" xmlns:xlink="http://www.w3.org/1999/xlink" width="64.808" height="40.435" viewBox="0 0 64.808 40.435">
  <defs>
    <linearGradient id="linear-gradient" y1="0.5" x2="1" y2="0.5" gradientUnits="objectBoundingBox">
      <stop offset="0" stop-color="#0a5711"/>
      <stop offset="1" stop-color="#94cc33"/>
    </linearGradient>
  </defs>
  <g id="Grupo_12204" data-name="Grupo 12204" transform="translate(-1487.719 -231.622)">
    <g id="Grupo_12197" data-name="Grupo 12197" transform="translate(1487.719 238.026)">
      <path id="Caminho_4618" data-name="Caminho 4618" d="M1538.964,305.049h-44.341a6.911,6.911,0,0,1-6.9-6.9V277.922a6.911,6.911,0,0,1,6.9-6.9h44.341a6.911,6.911,0,0,1,6.9,6.9v20.224A6.911,6.911,0,0,1,1538.964,305.049Zm-44.341-32.08a4.959,4.959,0,0,0-4.953,4.953v20.224a4.959,4.959,0,0,0,4.953,4.953h44.341a4.959,4.959,0,0,0,4.953-4.953V277.922a4.959,4.959,0,0,0-4.953-4.953Z" transform="translate(-1487.719 -271.018)" fill="url(#linear-gradient)"/>
    </g>
    <g id="Grupo_12198" data-name="Grupo 12198" transform="translate(1494.378 231.622)">
      <path id="Caminho_4619" data-name="Caminho 4619" d="M1579.932,265.653V263.7a4.959,4.959,0,0,0,4.953-4.953V238.526a4.959,4.959,0,0,0-4.953-4.953H1535.59a4.958,4.958,0,0,0-4.953,4.953h-1.951a6.911,6.911,0,0,1,6.9-6.9h44.341a6.911,6.911,0,0,1,6.9,6.9v20.224A6.911,6.911,0,0,1,1579.932,265.653Z" transform="translate(-1528.687 -231.622)" fill="url(#linear-gradient)"/>
    </g>
    <g id="Grupo_12199" data-name="Grupo 12199" transform="translate(1506.622 244.869)">
      <path id="Caminho_4620" data-name="Caminho 4620" d="M1614.181,333.465a10.172,10.172,0,1,1,10.172-10.172A10.183,10.183,0,0,1,1614.181,333.465Zm0-18.393a8.221,8.221,0,1,0,8.221,8.221A8.23,8.23,0,0,0,1614.181,315.072Z" transform="translate(-1604.009 -313.121)" fill="url(#linear-gradient)"/>
    </g>
    <g id="Grupo_12201" data-name="Grupo 12201" transform="translate(1512.897 249.137)">
      <g id="Grupo_12200" data-name="Grupo 12200" transform="translate(0)">
        <path id="Caminho_4621" data-name="Caminho 4621" d="M1646.056,349.882a3.941,3.941,0,0,1-3.442-1.987l1.133-1.063a2.838,2.838,0,0,0,2.308,1.665v-2.546c-1.5-.294-3.106-.728-3.106-2.518,0-1.441,1.133-2.56,3.106-2.742v-1.315h1.2v1.315a3.781,3.781,0,0,1,3.148,1.763l-1.077,1.105a2.539,2.539,0,0,0-2.071-1.483v2.6c1.5.308,3.106.756,3.106,2.588,0,1.5-1.273,2.449-3.106,2.6v1.316h-1.2Zm0-7.793c-.881.126-1.343.56-1.343,1.217s.588.923,1.343,1.119Zm2.561,5.275c0-.671-.6-.951-1.357-1.147V348.5C1648.112,348.4,1648.616,348.049,1648.616,347.364Z" transform="translate(-1642.614 -339.375)" fill="url(#linear-gradient)"/>
      </g>
    </g>
    <g id="Grupo_12202" data-name="Grupo 12202" transform="translate(1531.151 255.003)">
      <rect id="Ret창ngulo_4702" data-name="Ret창ngulo 4702" width="8.964" height="1.951" fill="url(#linear-gradient)"/>
    </g>
    <g id="Grupo_12203" data-name="Grupo 12203" transform="translate(1493.675 255.003)">
      <rect id="Ret창ngulo_4703" data-name="Ret창ngulo 4703" width="8.964" height="1.951" transform="translate(0)" fill="url(#linear-gradient)"/>
    </g>
  </g>
</svg>
