<svg xmlns="http://www.w3.org/2000/svg" xmlns:xlink="http://www.w3.org/1999/xlink" width="53.666" height="54.922" viewBox="0 0 53.666 54.922">
  <defs>
    <linearGradient id="linear-gradient" y1="0.5" x2="1" y2="0.5" gradientUnits="objectBoundingBox">
      <stop offset="0" stop-color="#0a5711"/>
      <stop offset="1" stop-color="#94cc33"/>
    </linearGradient>
  </defs>
  <g id="Grupo_12272" data-name="Grupo 12272" transform="translate(-672 -5419.764)">
    <path id="Caminho_4512" data-name="Caminho 4512" d="M317.206,87.6V63.459a2.644,2.644,0,0,0-1.307-2.214l-22.355-12.9h-.018v-.074a2.543,2.543,0,0,0-1.173-.256,2.449,2.449,0,0,0-1.281.331h-.228l-22.36,12.891a2.819,2.819,0,0,0-1.422,2.214V87.459a1.259,1.259,0,0,0,0,.256l.012-.007a2.858,2.858,0,0,0,1.4,1.949l.2.133L290.9,102.6a2.761,2.761,0,0,0,1.322.331,2.58,2.58,0,0,0,1.281-.331l22.145-12.775.008,0,.082-.051.256-.149a2.663,2.663,0,0,0,1.281-1.983ZM290.978,75.84m-22.3,13.951h-.008" transform="translate(404.945 5371.753)" fill="url(#linear-gradient)"/>
    <path id="Caminho_4511" data-name="Caminho 4511" d="M313.993,85.067v-22.6A2.475,2.475,0,0,0,312.77,60.4L291.847,48.321h-.017v-.069a2.38,2.38,0,0,0-1.1-.24,2.292,2.292,0,0,0-1.2.309h-.214L268.391,60.385a2.639,2.639,0,0,0-1.331,2.072V84.931a1.181,1.181,0,0,0,0,.24l.012-.007a2.675,2.675,0,0,0,1.31,1.824l.185.125L289.372,99.1a2.584,2.584,0,0,0,1.238.309,2.415,2.415,0,0,0,1.2-.309l20.726-11.957.007,0,.077-.048.24-.139a2.492,2.492,0,0,0,1.2-1.856Zm-24.547-11.01M268.576,87.114h-.007" transform="translate(411.608 5373.513)" fill="#0a5711"/>
    <text id="_4" data-name="4" transform="translate(686.521 5429.645)" fill="#fff" font-size="30" font-family="WorkSans-Bold, Work Sans" font-weight="700"><tspan x="5.952" y="28">4</tspan></text>
  </g>
</svg>
