<svg xmlns="http://www.w3.org/2000/svg" xmlns:xlink="http://www.w3.org/1999/xlink" width="115.492" height="79.094" viewBox="0 0 115.492 79.094">
  <defs>
    <linearGradient id="linear-gradient" y1="0.5" x2="1" y2="0.5" gradientUnits="objectBoundingBox">
      <stop offset="0" stop-color="#0a5711"/>
      <stop offset="1" stop-color="#94cc33"/>
    </linearGradient>
  </defs>
  <g id="Grupo_12221" data-name="Grupo 12221" transform="translate(-2264.392 -703.037)">
    <path id="Caminho_4629" data-name="Caminho 4629" d="M2373.145,751.738h-5.836v-10h-.864v-.018h-43.923v-8.29h8.073a6.747,6.747,0,0,0,6.74-6.74V709.777a6.747,6.747,0,0,0-6.74-6.74h-16.914a6.747,6.747,0,0,0-6.74,6.74v16.914a6.747,6.747,0,0,0,6.74,6.74h7.113v8.29h-40.342v-.006h-1.728v10.024h-7.594a6.747,6.747,0,0,0-6.739,6.74v16.914a6.747,6.747,0,0,0,6.739,6.74h16.914a6.747,6.747,0,0,0,6.74-6.74V758.478a6.747,6.747,0,0,0-6.74-6.74h-7.593v-8.29h40.342v8.29h-7.113a6.747,6.747,0,0,0-6.74,6.74v16.914a6.747,6.747,0,0,0,6.74,6.74H2330.6a6.747,6.747,0,0,0,6.74-6.74V758.478a6.747,6.747,0,0,0-6.74-6.74h-8.073v-8.29h43.059v8.29h-9.351a6.747,6.747,0,0,0-6.74,6.74v16.914a6.747,6.747,0,0,0,6.74,6.74h16.915a6.747,6.747,0,0,0,6.74-6.74V758.478A6.747,6.747,0,0,0,2373.145,751.738Zm-85.1,1.728a5.018,5.018,0,0,1,5.012,5.012v16.914a5.017,5.017,0,0,1-5.012,5.012h-16.914a5.017,5.017,0,0,1-5.012-5.012V758.478a5.017,5.017,0,0,1,5.012-5.012Zm42.549,0a5.018,5.018,0,0,1,5.012,5.012v16.914a5.017,5.017,0,0,1-5.012,5.012h-16.914a5.017,5.017,0,0,1-5.012-5.012V758.478a5.018,5.018,0,0,1,5.012-5.012ZM2313.681,731.7a5.018,5.018,0,0,1-5.012-5.012V709.777a5.018,5.018,0,0,1,5.012-5.012H2330.6a5.018,5.018,0,0,1,5.012,5.012v16.914a5.018,5.018,0,0,1-5.012,5.012Zm64.476,43.689a5.017,5.017,0,0,1-5.012,5.012H2356.23a5.018,5.018,0,0,1-5.012-5.012V758.478a5.018,5.018,0,0,1,5.012-5.012h16.915a5.017,5.017,0,0,1,5.012,5.012Z" transform="translate(0)" fill="url(#linear-gradient)"/>
    <g id="Grupo_12211" data-name="Grupo 12211" transform="translate(2270.942 757.172)">
      <g id="Grupo_12209" data-name="Grupo 12209" transform="translate(3.695)">
        <path id="Caminho_4630" data-name="Caminho 4630" d="M2340.5,1088.946a4.952,4.952,0,1,1,4.951-4.952A4.957,4.957,0,0,1,2340.5,1088.946Zm0-8.838a3.886,3.886,0,1,0,3.886,3.886A3.891,3.891,0,0,0,2340.5,1080.108Z" transform="translate(-2335.551 -1079.043)" fill="url(#linear-gradient)"/>
      </g>
      <g id="Grupo_12210" data-name="Grupo 12210" transform="translate(0 10.88)">
        <path id="Caminho_4631" data-name="Caminho 4631" d="M2327.181,1163.26h-1.065a7.581,7.581,0,1,0-15.162,0h-1.065a8.646,8.646,0,1,1,17.292,0Z" transform="translate(-2309.888 -1154.613)" fill="url(#linear-gradient)"/>
      </g>
    </g>
    <g id="Grupo_12214" data-name="Grupo 12214" transform="translate(2313.492 757.172)">
      <g id="Grupo_12212" data-name="Grupo 12212" transform="translate(3.695)">
        <path id="Caminho_4632" data-name="Caminho 4632" d="M2636.042,1088.946a4.952,4.952,0,1,1,4.952-4.952A4.957,4.957,0,0,1,2636.042,1088.946Zm0-8.838a3.886,3.886,0,1,0,3.886,3.886A3.891,3.891,0,0,0,2636.042,1080.108Z" transform="translate(-2631.09 -1079.043)" fill="url(#linear-gradient)"/>
      </g>
      <g id="Grupo_12213" data-name="Grupo 12213" transform="translate(0 10.88)">
        <path id="Caminho_4633" data-name="Caminho 4633" d="M2622.72,1163.26h-1.065a7.581,7.581,0,1,0-15.162,0h-1.065a8.646,8.646,0,1,1,17.293,0Z" transform="translate(-2605.427 -1154.613)" fill="url(#linear-gradient)"/>
      </g>
    </g>
    <g id="Grupo_12217" data-name="Grupo 12217" transform="translate(2313.492 708.47)">
      <g id="Grupo_12215" data-name="Grupo 12215" transform="translate(3.695 0)">
        <path id="Caminho_4634" data-name="Caminho 4634" d="M2636.042,750.68a4.952,4.952,0,1,1,4.952-4.952A4.957,4.957,0,0,1,2636.042,750.68Zm0-8.838a3.886,3.886,0,1,0,3.886,3.886A3.89,3.89,0,0,0,2636.042,741.841Z" transform="translate(-2631.09 -740.776)" fill="url(#linear-gradient)"/>
      </g>
      <g id="Grupo_12216" data-name="Grupo 12216" transform="translate(0 10.88)">
        <path id="Caminho_4635" data-name="Caminho 4635" d="M2622.72,824.993h-1.065a7.581,7.581,0,1,0-15.162,0h-1.065a8.646,8.646,0,1,1,17.293,0Z" transform="translate(-2605.427 -816.347)" fill="url(#linear-gradient)"/>
      </g>
    </g>
    <g id="Grupo_12220" data-name="Grupo 12220" transform="translate(2356.041 757.172)">
      <g id="Grupo_12218" data-name="Grupo 12218" transform="translate(3.695)">
        <path id="Caminho_4636" data-name="Caminho 4636" d="M2931.58,1088.946a4.952,4.952,0,1,1,4.952-4.952A4.957,4.957,0,0,1,2931.58,1088.946Zm0-8.838a3.886,3.886,0,1,0,3.887,3.886A3.891,3.891,0,0,0,2931.58,1080.108Z" transform="translate(-2926.628 -1079.043)" fill="url(#linear-gradient)"/>
      </g>
      <g id="Grupo_12219" data-name="Grupo 12219" transform="translate(0 10.88)">
        <path id="Caminho_4637" data-name="Caminho 4637" d="M2918.258,1163.26h-1.065a7.581,7.581,0,1,0-15.162,0h-1.065a8.646,8.646,0,1,1,17.293,0Z" transform="translate(-2900.965 -1154.613)" fill="url(#linear-gradient)"/>
      </g>
    </g>
  </g>
</svg>
