<svg xmlns="http://www.w3.org/2000/svg" xmlns:xlink="http://www.w3.org/1999/xlink" width="64.808" height="40.435" viewBox="0 0 64.808 40.435">
  <defs>
    <linearGradient id="linear-gradient" y1="0.5" x2="1" y2="0.5" gradientUnits="objectBoundingBox">
      <stop offset="0" stop-color="#ff6b09"/>
      <stop offset="1" stop-color="#ffc709"/>
    </linearGradient>
  </defs>
  <g id="Grupo_12180" data-name="Grupo 12180" transform="translate(-4610.182 1589.022)">
    <g id="Grupo_12173" data-name="Grupo 12173" transform="translate(4610.182 -1582.618)">
      <path id="Caminho_4605" data-name="Caminho 4605" d="M4661.427-1515.6h-44.341a6.911,6.911,0,0,1-6.9-6.9v-20.224a6.911,6.911,0,0,1,6.9-6.9h44.341a6.911,6.911,0,0,1,6.9,6.9v20.224A6.911,6.911,0,0,1,4661.427-1515.6Zm-44.341-32.08a4.959,4.959,0,0,0-4.953,4.953v20.224a4.958,4.958,0,0,0,4.953,4.953h44.341a4.959,4.959,0,0,0,4.953-4.953v-20.224a4.959,4.959,0,0,0-4.953-4.953Z" transform="translate(-4610.182 1549.626)" fill="url(#linear-gradient)"/>
    </g>
    <g id="Grupo_12174" data-name="Grupo 12174" transform="translate(4616.841 -1589.022)">
      <path id="Caminho_4606" data-name="Caminho 4606" d="M4702.394-1554.991v-1.951a4.959,4.959,0,0,0,4.954-4.953v-20.224a4.959,4.959,0,0,0-4.954-4.953h-44.341a4.958,4.958,0,0,0-4.953,4.953h-1.951a6.911,6.911,0,0,1,6.9-6.9h44.341a6.912,6.912,0,0,1,6.9,6.9v20.224A6.912,6.912,0,0,1,4702.394-1554.991Z" transform="translate(-4651.149 1589.022)" fill="url(#linear-gradient)"/>
    </g>
    <g id="Grupo_12175" data-name="Grupo 12175" transform="translate(4629.084 -1575.775)">
      <path id="Caminho_4607" data-name="Caminho 4607" d="M4736.644-1487.179a10.183,10.183,0,0,1-10.172-10.172,10.183,10.183,0,0,1,10.172-10.172,10.183,10.183,0,0,1,10.171,10.172A10.183,10.183,0,0,1,4736.644-1487.179Zm0-18.393a8.231,8.231,0,0,0-8.221,8.221,8.231,8.231,0,0,0,8.221,8.221,8.231,8.231,0,0,0,8.221-8.221A8.231,8.231,0,0,0,4736.644-1505.573Z" transform="translate(-4726.472 1507.523)" fill="url(#linear-gradient)"/>
    </g>
    <g id="Grupo_12177" data-name="Grupo 12177" transform="translate(4635.36 -1571.507)">
      <g id="Grupo_12176" data-name="Grupo 12176" transform="translate(0 0)">
        <path id="Caminho_4608" data-name="Caminho 4608" d="M4768.518-1470.762a3.94,3.94,0,0,1-3.441-1.987l1.133-1.064a2.838,2.838,0,0,0,2.308,1.665v-2.547c-1.5-.294-3.105-.728-3.105-2.519,0-1.441,1.133-2.56,3.105-2.742v-1.315h1.2v1.315a3.781,3.781,0,0,1,3.148,1.763l-1.077,1.105a2.541,2.541,0,0,0-2.071-1.483v2.6c1.5.308,3.106.756,3.106,2.588,0,1.5-1.273,2.449-3.106,2.6v1.315h-1.2Zm0-7.793c-.881.126-1.343.56-1.343,1.218s.589.923,1.343,1.119Zm2.561,5.275c0-.671-.6-.951-1.357-1.147v2.281C4770.575-1472.245,4771.079-1472.594,4771.079-1473.28Z" transform="translate(-4765.077 1481.269)" fill="url(#linear-gradient)"/>
      </g>
    </g>
    <g id="Grupo_12178" data-name="Grupo 12178" transform="translate(4653.614 -1565.641)">
      <rect id="Ret창ngulo_4516" data-name="Ret창ngulo 4516" width="8.964" height="1.951" transform="translate(0 0)" fill="url(#linear-gradient)"/>
    </g>
    <g id="Grupo_12179" data-name="Grupo 12179" transform="translate(4616.138 -1565.641)">
      <rect id="Ret창ngulo_4517" data-name="Ret창ngulo 4517" width="8.964" height="1.951" transform="translate(0 0)" fill="url(#linear-gradient)"/>
    </g>
  </g>
</svg>
