<svg xmlns="http://www.w3.org/2000/svg" xmlns:xlink="http://www.w3.org/1999/xlink" width="54.262" height="52.696" viewBox="0 0 54.262 52.696">
  <defs>
    <linearGradient id="linear-gradient" y1="0.5" x2="1" y2="0.5" gradientUnits="objectBoundingBox">
      <stop offset="0" stop-color="#ff6b09"/>
      <stop offset="1" stop-color="#ffc709"/>
    </linearGradient>
  </defs>
  <g id="Grupo_12152" data-name="Grupo 12152" transform="translate(-3199.273 -1761.04)">
    <path id="Caminho_4585" data-name="Caminho 4585" d="M3287.4,1772.516l-28.2,28.2-9.51-9.51-2.153,2.153,11.661,11.661,1.054-1.054v0l29.3-29.3Z" transform="translate(-36.015 -8.564)" fill="url(#linear-gradient)"/>
    <g id="Grupo_12151" data-name="Grupo 12151" transform="translate(3199.273 1761.04)">
      <path id="Caminho_4586" data-name="Caminho 4586" d="M3242.553,1813.736h-33.864a9.427,9.427,0,0,1-9.416-9.416v-33.864a9.427,9.427,0,0,1,9.416-9.416h16.932v3.045h-16.932a6.378,6.378,0,0,0-6.371,6.371v33.864a6.378,6.378,0,0,0,6.371,6.371h33.864a6.378,6.378,0,0,0,6.371-6.371v-16.932h3.045v16.932A9.426,9.426,0,0,1,3242.553,1813.736Z" transform="translate(-3199.273 -1761.04)" fill="url(#linear-gradient)"/>
    </g>
  </g>
</svg>
