<svg xmlns="http://www.w3.org/2000/svg" xmlns:xlink="http://www.w3.org/1999/xlink" width="90.996" height="75.843" viewBox="0 0 90.996 75.843">
  <defs>
    <linearGradient id="linear-gradient" y1="0.5" x2="1" y2="0.5" gradientUnits="objectBoundingBox">
      <stop offset="0" stop-color="#ff6b09"/>
      <stop offset="1" stop-color="#ffc709"/>
    </linearGradient>
  </defs>
  <g id="Grupo_12153" data-name="Grupo 12153" transform="translate(-2355.227 -2023.591)">
    <path id="Caminho_4587" data-name="Caminho 4587" d="M2471.567,2120.93a20.963,20.963,0,1,0,20.964-20.963A20.987,20.987,0,0,0,2471.567,2120.93Zm39.377,0a18.413,18.413,0,1,1-18.413-18.413A18.434,18.434,0,0,1,2510.944,2120.93Z" transform="translate(-91.617 -60.146)" fill="url(#linear-gradient)"/>
    <path id="Caminho_4588" data-name="Caminho 4588" d="M2538.329,2139.134v2.815c-4.223.389-6.649,2.785-6.649,5.87,0,3.834,3.445,4.763,6.649,5.392v5.452a6.077,6.077,0,0,1-4.942-3.565l-2.426,2.276c1.407,2.516,3.744,3.984,7.368,4.253v2.786h2.576V2161.6c3.924-.329,6.65-2.366,6.65-5.571,0-3.923-3.445-4.882-6.65-5.541v-5.571a5.437,5.437,0,0,1,4.433,3.175l2.306-2.366a8.093,8.093,0,0,0-6.74-3.774v-2.815Zm0,10.813c-1.617-.42-2.875-.989-2.875-2.4s.988-2.337,2.875-2.606Zm5.482,6.29c0,1.468-1.078,2.217-2.906,2.427v-4.883C2542.523,2154.2,2543.811,2154.8,2543.811,2156.237Z" transform="translate(-138.39 -90.99)" fill="url(#linear-gradient)"/>
    <path id="Caminho_4589" data-name="Caminho 4589" d="M2372.928,2055.031l-6.646,6.646c-.008-.3-.012-.6-.012-.893a34.648,34.648,0,0,1,65.106-16.512l2.241-1.218a37.2,37.2,0,0,0-32.7-19.464,36.793,36.793,0,0,0-23.218,8.135,37.1,37.1,0,0,0-13.976,29.058c0,.3.005.611.013.917l-6.7-6.7-1.8,1.8,9.766,9.766.883-.883h0l8.885-8.885Zm-8.078,7.789.306-.017-.162.161Z" fill="url(#linear-gradient)"/>
    <path id="Caminho_4590" data-name="Caminho 4590" d="M2491.055,2188.012l-9.766-9.766-.883.883v0l-8.885,8.885,1.833,1.772,6.646-6.646c.007.3.012.6.012.893a34.829,34.829,0,0,1-.94,8.053h0a34.656,34.656,0,0,1-64.64,7.555l-2.276,1.15a37.191,37.191,0,0,0,33.212,20.435,36.8,36.8,0,0,0,23.218-8.135,37.362,37.362,0,0,0,12.966-20.415l-1.24-.3,1.24.295a37.368,37.368,0,0,0,1.01-8.643c0-.305-.006-.612-.013-.918l6.7,6.7Zm-9.929-6,.161-.161.145.144Z" transform="translate(-44.831 -121.79)" fill="url(#linear-gradient)"/>
  </g>
</svg>
