<svg xmlns="http://www.w3.org/2000/svg" width="25.023" height="25.02" viewBox="0 0 25.023 25.02">
  <path id="Caminho_4561" data-name="Caminho 4561" d="M2319.99,141.635a2.519,2.519,0,0,0-2.391-2.385c-6.753.016-13.505.007-20.257.008a2.037,2.037,0,0,0-1.012.226,2.419,2.419,0,0,0-1.363,1.9v20.792a2.072,2.072,0,0,0,.314.908,2.287,2.287,0,0,0,1.783,1.165c.081.012.168-.026.246.025h20.306c.094-.051.2-.013.294-.025a1.528,1.528,0,0,0,.721-.2,2.465,2.465,0,0,0,1.357-2.281c-.012-4.425-.005-8.85-.005-13.275C2319.983,146.207,2319.965,143.921,2319.99,141.635Zm-17.744,18.886q-1.659-.009-3.317,0c-.17,0-.214-.04-.213-.212.007-1.813,0-3.625,0-5.438,0-1.789,0-3.577,0-5.365,0-.172.027-.233.22-.231,1.1.011,2.211.008,3.317,0,.164,0,.219.036.218.212q-.007,5.414,0,10.827C2302.472,160.5,2302.4,160.522,2302.246,160.521Zm-1.691-13.376a2.246,2.246,0,1,1,2.277-2.207A2.247,2.247,0,0,1,2300.555,147.145Zm15.429,13.377q-1.647-.014-3.294,0c-.2,0-.236-.063-.235-.246q.009-3.123,0-6.246a1.9,1.9,0,0,0-1.384-1.924,1.882,1.882,0,0,0-2.338,1.566c-.014.154-.02.309-.02.463,0,2.042-.005,4.083,0,6.125,0,.221-.06.264-.269.262-1.09-.011-2.18-.009-3.27,0-.163,0-.218-.029-.218-.207q.009-5.418,0-10.835c0-.153.031-.2.2-.2q1.672.012,3.344,0c.171,0,.22.046.214.216-.012.4,0,.8,0,1.193a4.648,4.648,0,0,1,1.467-1.205,3.775,3.775,0,0,1,4.153.369,4.251,4.251,0,0,1,1.871,3.664q0,3.393,0,6.784C2316.211,160.482,2316.165,160.524,2315.984,160.522Z" transform="translate(-2294.967 -139.25)" fill="#ffc709"/>
</svg>
