<svg xmlns="http://www.w3.org/2000/svg" xmlns:xlink="http://www.w3.org/1999/xlink" width="65.066" height="65.066" viewBox="0 0 65.066 65.066">
  <defs>
    <linearGradient id="linear-gradient" y1="0.5" x2="1" y2="0.5" gradientUnits="objectBoundingBox">
      <stop offset="0" stop-color="#ff6b09"/>
      <stop offset="1" stop-color="#ffc709"/>
    </linearGradient>
  </defs>
  <path id="Caminho_4602" data-name="Caminho 4602" d="M4376.791-2288.886a32.57,32.57,0,0,0-32.533,32.533,32.57,32.57,0,0,0,32.533,32.533,32.57,32.57,0,0,0,32.533-32.533,32.57,32.57,0,0,0-32.533-32.533Zm0,2.1a30.357,30.357,0,0,1,7.956,1.063c-.161.824-.312,1.628-.412,2.3a18.736,18.736,0,0,0-.214,2.314l-.007.238a7.783,7.783,0,0,1-.142,1.491,3.752,3.752,0,0,1-.245.744c-.147-.1-.312-.223-.424-.306l-.4-.3c-.608-.454-1.364-1.019-2.028-1.462a9.412,9.412,0,0,0-2.251-1.175,1.85,1.85,0,0,0-2.475.8,4.359,4.359,0,0,0-.122,2.987,9.333,9.333,0,0,0,1.432,2.644l.087.127c.519.76,1.254,1.855,1.809,2.756a5.2,5.2,0,0,1,.47.895,8.278,8.278,0,0,1-1.715.844l-.43.176a9.877,9.877,0,0,0-2.477,1.392,12.751,12.751,0,0,0-2.054,2.143c-.644.821-1.286,1.759-1.836,2.573a6.27,6.27,0,0,0-1.144,2.307,7.7,7.7,0,0,0-.033,2.1l.016.217a6.55,6.55,0,0,1,.023.794,4.773,4.773,0,0,1-.851-.5,6.641,6.641,0,0,1-.737-.654c-.178-.175-.347-.339-.522-.486a4.312,4.312,0,0,0-1.65-.864,3.549,3.549,0,0,0-1.855.019,2.72,2.72,0,0,0-2.106,1.569,3.6,3.6,0,0,0,.487,2.882,8.051,8.051,0,0,0,1.5,2.073,5.975,5.975,0,0,0,.951.718c.134.087.27.173.411.279.21.158.451.374.7.6.218.2.439.394.66.574.309.252.613.47.882.662.175.124.342.242.494.36a2.565,2.565,0,0,1,.389.354,1.644,1.644,0,0,1-1.016.063,10.831,10.831,0,0,1-2.469-1.121,29.71,29.71,0,0,0-2.786-1.4c-.5-.21-1-.391-1.49-.565-.445-.159-.864-.311-1.213-.459a6.84,6.84,0,0,1-1.7-1.057,9.678,9.678,0,0,1-1.816-1.806,8.83,8.83,0,0,1-1.126-2.413c-.348-1.02-.686-2.171-.982-3.331a16.189,16.189,0,0,1-.559-3.133,6.365,6.365,0,0,1,.389-2.081l.072-.246a23.475,23.475,0,0,0,.889-4.189,28.7,28.7,0,0,0,0-4.427,30.348,30.348,0,0,1,21.666-9.083Zm-30.434,30.434a30.279,30.279,0,0,1,6.753-19.086,17.866,17.866,0,0,1-.073,1.952,21.552,21.552,0,0,1-.817,3.813l-.07.241a8.218,8.218,0,0,0-.474,2.722,16.786,16.786,0,0,0,.622,3.6c.309,1.212.665,2.419,1.029,3.49a10.8,10.8,0,0,0,1.411,2.965,11.687,11.687,0,0,0,2.207,2.217,8.843,8.843,0,0,0,2.189,1.348c.406.174.855.335,1.33.5s.938.337,1.389.526a28.569,28.569,0,0,1,2.634,1.33,11.966,11.966,0,0,0,3,1.309,4.218,4.218,0,0,0,.868.091,3.234,3.234,0,0,0,1.886-.552,1.933,1.933,0,0,0,.76-2.192,3.168,3.168,0,0,0-1.167-1.477c-.174-.136-.365-.272-.565-.414-.246-.175-.508-.362-.771-.576-.2-.161-.395-.337-.587-.511-.276-.249-.563-.5-.847-.717-.183-.138-.36-.252-.534-.365a3.99,3.99,0,0,1-.641-.475,6.072,6.072,0,0,1-1.08-1.512,2.894,2.894,0,0,1-.4-1.161,1.3,1.3,0,0,1,.662-.292,1.479,1.479,0,0,1,.812-.025,2.247,2.247,0,0,1,.842.447c.133.11.259.236.393.368a8.426,8.426,0,0,0,.971.853,5.187,5.187,0,0,0,2.384,1.032,1.652,1.652,0,0,0,1.739-1.566,6.428,6.428,0,0,0,.036-1.615l-.019-.229a6.2,6.2,0,0,1,0-1.522,4.546,4.546,0,0,1,.824-1.542c.531-.786,1.148-1.687,1.75-2.455a10.7,10.7,0,0,1,1.707-1.793,7.87,7.87,0,0,1,1.983-1.1l.412-.169a6.543,6.543,0,0,0,2.6-1.521c.929-1.162.152-2.425-.363-3.261-.576-.936-1.331-2.061-1.864-2.84l-.086-.127a7.835,7.835,0,0,1-1.149-2.043,2.934,2.934,0,0,1-.091-1.21l.031.01a7.623,7.623,0,0,1,1.728.923c.618.412,1.319.935,1.937,1.4l.4.3c.738.549,1.659,1.231,2.643.653a3.7,3.7,0,0,0,1.323-2.314,9.438,9.438,0,0,0,.192-1.889l.007-.229a17.16,17.16,0,0,1,.191-2.075c.086-.569.214-1.261.354-1.985a30.328,30.328,0,0,1,5.252,2.412c.252,1.3.5,2.564.662,3.432a17.908,17.908,0,0,1,.3,1.874c.041.481.041,1.028.041,1.662a7.337,7.337,0,0,0,.3,2.439,5.133,5.133,0,0,0,1.678,2.321,9.2,9.2,0,0,0,.772.53,3.471,3.471,0,0,1,.862.666,4.386,4.386,0,0,1,.559,1.78l.071.44a12.039,12.039,0,0,0,.38,1.806c.088.275.2.534.3.795a5.613,5.613,0,0,1,.327.929,4.1,4.1,0,0,1-.058,1.87c-.077.3-.195.631-.32.979a12.939,12.939,0,0,0-.568,1.921,19.429,19.429,0,0,0-.216,3.916,21.25,21.25,0,0,0,.258,3.432,7.421,7.421,0,0,0,1.006,2.677,3.705,3.705,0,0,0,1.773,1.5,4.588,4.588,0,0,0,.473.148c.059.016.133.037.188.054a2.664,2.664,0,0,1-.149,1.2,12.129,12.129,0,0,1-.891,1.859c-.145.266-.293.54-.441.822a28.371,28.371,0,0,0-1.779,4.312c-.622,1.868-1.358,4.439-2.077,6.965a30.248,30.248,0,0,1-18.678,6.437,30.469,30.469,0,0,1-30.434-30.433Zm52.041,21.408c.4-1.376.791-2.662,1.139-3.708a25.647,25.647,0,0,1,1.649-4.005c.141-.272.283-.533.422-.789a13.545,13.545,0,0,0,1.044-2.214,3.833,3.833,0,0,0-.046-2.971,2.158,2.158,0,0,0-1.436-.96,2.846,2.846,0,0,1-.28-.085,1.671,1.671,0,0,1-.763-.686,5.415,5.415,0,0,1-.7-1.913,19.487,19.487,0,0,1-.223-3.084,17.821,17.821,0,0,1,.177-3.475,10.984,10.984,0,0,1,.485-1.619c.135-.377.274-.769.376-1.165a6.223,6.223,0,0,0,.073-2.854,7.573,7.573,0,0,0-.437-1.275c-.087-.207-.173-.412-.243-.629a10.522,10.522,0,0,1-.306-1.495l-.073-.456a6,6,0,0,0-.972-2.723,5.158,5.158,0,0,0-1.394-1.149c-.218-.138-.424-.269-.6-.408a3.051,3.051,0,0,1-.99-1.353,5.523,5.523,0,0,1-.184-1.757c0-.681,0-1.268-.047-1.836a19.768,19.768,0,0,0-.332-2.093c-.079-.411-.175-.912-.281-1.461a30.4,30.4,0,0,1,12.766,24.756,30.333,30.333,0,0,1-8.827,21.407Zm-8-11.646-.221-.056a7.232,7.232,0,0,1-1.428-.456,2.553,2.553,0,0,1-.98-.854c-.106-.157-.2-.329-.3-.5a4.137,4.137,0,0,0-1.027-1.341,3.685,3.685,0,0,0-1.653-.6c-.211-.04-.442-.083-.689-.147-.317-.081-.684-.2-1.072-.33a17.547,17.547,0,0,0-1.926-.555,8.7,8.7,0,0,0-3.5-.023,7.352,7.352,0,0,0-3.016,1.315,7.986,7.986,0,0,0-1.673,1.9l-.266.382c-.314.451-.611.875-.882,1.34a6.2,6.2,0,0,0-.807,2.106,4.211,4.211,0,0,0,.522,2.887,10.282,10.282,0,0,0,2.3,2.492c.146.12.287.23.421.335a3.831,3.831,0,0,1,1.067,1.068,5.641,5.641,0,0,1,.643,2.337,6.213,6.213,0,0,1-.229,1.774l-.077.335a5.562,5.562,0,0,0-.085,2.489c.3,1.329,1.1,2.178,2.1,2.217h.072c.849,0,1.718-.577,2.8-1.86.218-.257.433-.532.651-.807a9.6,9.6,0,0,1,1.4-1.556,5.1,5.1,0,0,1,1.631-.735c.217-.07.436-.142.657-.22a15.532,15.532,0,0,0,3.212-1.638,14.163,14.163,0,0,0,3.262-2.74,4.557,4.557,0,0,0,.821-1.876,3.907,3.907,0,0,1,.134-.484,5.234,5.234,0,0,1,.458-.823,8.509,8.509,0,0,0,.588-1.041,2.765,2.765,0,0,0-.208-3.044,5.257,5.257,0,0,0-2.7-1.29Zm.991,3.471a6.71,6.71,0,0,1-.45.786,6.728,6.728,0,0,0-.645,1.2,5.64,5.64,0,0,0-.214.75,2.539,2.539,0,0,1-.45,1.088,11.869,11.869,0,0,1-2.729,2.244,13.311,13.311,0,0,1-2.779,1.423c-.2.072-.4.137-.6.2a6.893,6.893,0,0,0-2.276,1.076,11.039,11.039,0,0,0-1.762,1.916c-.2.255-.4.51-.6.749a4.84,4.84,0,0,1-1.12,1.059,1.759,1.759,0,0,1-.2-.524,3.624,3.624,0,0,1,.089-1.578l.07-.313a8.228,8.228,0,0,0,.28-2.344,7.716,7.716,0,0,0-.931-3.3,5.7,5.7,0,0,0-1.578-1.654c-.124-.1-.253-.2-.389-.309a8.22,8.22,0,0,1-1.814-1.925,2.108,2.108,0,0,1-.264-1.485,4.033,4.033,0,0,1,.549-1.393c.228-.391.488-.764.791-1.2l.271-.392a6.131,6.131,0,0,1,1.231-1.435,5.239,5.239,0,0,1,2.143-.916,6.48,6.48,0,0,1,1.271-.125,6.9,6.9,0,0,1,1.393.145,15.953,15.953,0,0,1,1.7.493c.423.14.823.272,1.209.371.3.076.57.129.822.177a2.532,2.532,0,0,1,.769.21,2.976,2.976,0,0,1,.47.7c.125.222.252.446.392.651a4.615,4.615,0,0,0,1.776,1.551,8.971,8.971,0,0,0,1.848.612l.218.056a4.741,4.741,0,0,1,1.634.634c.077.09.062.4-.122.8Z" transform="translate(-4344.258 2288.886)" fill="url(#linear-gradient)"/>
</svg>
