<svg xmlns="http://www.w3.org/2000/svg" xmlns:xlink="http://www.w3.org/1999/xlink" width="115.493" height="79.095" viewBox="0 0 115.493 79.095">
  <defs>
    <linearGradient id="linear-gradient" y1="0.5" x2="1" y2="0.5" gradientUnits="objectBoundingBox">
      <stop offset="0" stop-color="#ff6b09"/>
      <stop offset="1" stop-color="#ffc709"/>
    </linearGradient>
  </defs>
  <g id="Grupo_12150" data-name="Grupo 12150" transform="translate(-4266.68 -1996.084)">
    <path id="Caminho_4576" data-name="Caminho 4576" d="M4375.433,2044.785H4369.6v-10h-.864v-.018h-43.923v-8.29h8.073a6.747,6.747,0,0,0,6.74-6.74v-16.914a6.747,6.747,0,0,0-6.74-6.74h-16.914a6.747,6.747,0,0,0-6.74,6.74v16.914a6.747,6.747,0,0,0,6.74,6.74h7.114v8.29h-40.342v-.006h-1.728v10.024h-7.593a6.747,6.747,0,0,0-6.74,6.74v16.914a6.747,6.747,0,0,0,6.74,6.74h16.914a6.747,6.747,0,0,0,6.74-6.74v-16.914a6.747,6.747,0,0,0-6.74-6.74h-7.593v-8.29h40.342v8.29h-7.114a6.747,6.747,0,0,0-6.74,6.74v16.914a6.747,6.747,0,0,0,6.74,6.74h16.914a6.747,6.747,0,0,0,6.74-6.74v-16.914a6.747,6.747,0,0,0-6.74-6.74h-8.073v-8.29h43.06v8.29h-9.351a6.747,6.747,0,0,0-6.74,6.74v16.914a6.747,6.747,0,0,0,6.74,6.74h16.914a6.748,6.748,0,0,0,6.74-6.74v-16.914A6.748,6.748,0,0,0,4375.433,2044.785Zm-85.1,1.728a5.017,5.017,0,0,1,5.012,5.012v16.914a5.018,5.018,0,0,1-5.012,5.012H4273.42a5.018,5.018,0,0,1-5.012-5.012v-16.914a5.017,5.017,0,0,1,5.012-5.012Zm42.549,0a5.018,5.018,0,0,1,5.012,5.012v16.914a5.018,5.018,0,0,1-5.012,5.012h-16.914a5.018,5.018,0,0,1-5.012-5.012v-16.914a5.018,5.018,0,0,1,5.012-5.012Zm-16.914-21.763a5.018,5.018,0,0,1-5.012-5.012v-16.914a5.018,5.018,0,0,1,5.012-5.012h16.914a5.018,5.018,0,0,1,5.012,5.012v16.914a5.018,5.018,0,0,1-5.012,5.012Zm64.476,43.689a5.018,5.018,0,0,1-5.012,5.012h-16.914a5.018,5.018,0,0,1-5.012-5.012v-16.914a5.018,5.018,0,0,1,5.012-5.012h16.914a5.017,5.017,0,0,1,5.012,5.012Z" fill="url(#linear-gradient)"/>
    <g id="Grupo_12140" data-name="Grupo 12140" transform="translate(4273.23 2050.219)">
      <g id="Grupo_12138" data-name="Grupo 12138" transform="translate(3.695)">
        <path id="Caminho_4577" data-name="Caminho 4577" d="M4342.791,2381.994a4.952,4.952,0,1,1,4.952-4.952A4.958,4.958,0,0,1,4342.791,2381.994Zm0-8.838a3.886,3.886,0,1,0,3.886,3.887A3.891,3.891,0,0,0,4342.791,2373.155Z" transform="translate(-4337.839 -2372.09)" fill="url(#linear-gradient)"/>
      </g>
      <g id="Grupo_12139" data-name="Grupo 12139" transform="translate(0 10.88)">
        <path id="Caminho_4578" data-name="Caminho 4578" d="M4329.469,2456.307H4328.4a7.581,7.581,0,1,0-15.163,0h-1.065a8.646,8.646,0,1,1,17.293,0Z" transform="translate(-4312.176 -2447.66)" fill="url(#linear-gradient)"/>
      </g>
    </g>
    <g id="Grupo_12143" data-name="Grupo 12143" transform="translate(4315.78 2050.219)">
      <g id="Grupo_12141" data-name="Grupo 12141" transform="translate(3.695)">
        <path id="Caminho_4579" data-name="Caminho 4579" d="M4638.33,2381.994a4.952,4.952,0,1,1,4.952-4.952A4.958,4.958,0,0,1,4638.33,2381.994Zm0-8.838a3.886,3.886,0,1,0,3.886,3.887A3.891,3.891,0,0,0,4638.33,2373.155Z" transform="translate(-4633.378 -2372.09)" fill="url(#linear-gradient)"/>
      </g>
      <g id="Grupo_12142" data-name="Grupo 12142" transform="translate(0 10.88)">
        <path id="Caminho_4580" data-name="Caminho 4580" d="M4625.008,2456.307h-1.065a7.581,7.581,0,1,0-15.162,0h-1.065a8.646,8.646,0,1,1,17.293,0Z" transform="translate(-4607.715 -2447.66)" fill="url(#linear-gradient)"/>
      </g>
    </g>
    <g id="Grupo_12146" data-name="Grupo 12146" transform="translate(4315.78 2001.517)">
      <g id="Grupo_12144" data-name="Grupo 12144" transform="translate(3.695)">
        <path id="Caminho_4581" data-name="Caminho 4581" d="M4638.33,2043.727a4.952,4.952,0,1,1,4.952-4.952A4.958,4.958,0,0,1,4638.33,2043.727Zm0-8.838a3.886,3.886,0,1,0,3.886,3.886A3.891,3.891,0,0,0,4638.33,2034.888Z" transform="translate(-4633.378 -2033.823)" fill="url(#linear-gradient)"/>
      </g>
      <g id="Grupo_12145" data-name="Grupo 12145" transform="translate(0 10.88)">
        <path id="Caminho_4582" data-name="Caminho 4582" d="M4625.008,2118.041h-1.065a7.581,7.581,0,0,0-15.162,0h-1.065a8.646,8.646,0,0,1,17.293,0Z" transform="translate(-4607.715 -2109.394)" fill="url(#linear-gradient)"/>
      </g>
    </g>
    <g id="Grupo_12149" data-name="Grupo 12149" transform="translate(4358.33 2050.219)">
      <g id="Grupo_12147" data-name="Grupo 12147" transform="translate(3.695)">
        <path id="Caminho_4583" data-name="Caminho 4583" d="M4933.868,2381.994a4.952,4.952,0,1,1,4.952-4.952A4.958,4.958,0,0,1,4933.868,2381.994Zm0-8.838a3.886,3.886,0,1,0,3.886,3.887A3.891,3.891,0,0,0,4933.868,2373.155Z" transform="translate(-4928.916 -2372.09)" fill="url(#linear-gradient)"/>
      </g>
      <g id="Grupo_12148" data-name="Grupo 12148" transform="translate(0 10.88)">
        <path id="Caminho_4584" data-name="Caminho 4584" d="M4920.547,2456.307h-1.065a7.581,7.581,0,1,0-15.162,0h-1.065a8.646,8.646,0,1,1,17.293,0Z" transform="translate(-4903.254 -2447.66)" fill="url(#linear-gradient)"/>
      </g>
    </g>
  </g>
</svg>
